<?xml version="1.0" encoding="UTF-8" standalone="no"?>
<!-- Created with Inkscape (http://www.inkscape.org/) -->

<svg
   xmlns:dc="http://purl.org/dc/elements/1.1/"
   xmlns:cc="http://creativecommons.org/ns#"
   xmlns:rdf="http://www.w3.org/1999/02/22-rdf-syntax-ns#"
   xmlns:svg="http://www.w3.org/2000/svg"
   xmlns="http://www.w3.org/2000/svg"
   xmlns:sodipodi="http://sodipodi.sourceforge.net/DTD/sodipodi-0.dtd"
   xmlns:inkscape="http://www.inkscape.org/namespaces/inkscape"
   version="1.1"
   id="svg4421"
   xml:space="preserve"
   width="611.52002"
   height="378.07999"
   viewBox="0 0 611.52002 378.07999"
   sodipodi:docname="Research_1.svg"
   inkscape:version="0.92.3 (2405546, 2018-03-11)"><metadata
     id="metadata4427"><rdf:RDF><cc:Work
         rdf:about=""><dc:format>image/svg+xml</dc:format><dc:type
           rdf:resource="http://purl.org/dc/dcmitype/StillImage" /><dc:title></dc:title></cc:Work></rdf:RDF></metadata><defs
     id="defs4425"><clipPath
       clipPathUnits="userSpaceOnUse"
       id="clipPath4437"><path
         d="M 0,6.1035e-5 H 458.64 V 283.56006 H 0 Z"
         id="path4435"
         inkscape:connector-curvature="0"
         style="clip-rule:evenodd" /></clipPath><clipPath
       clipPathUnits="userSpaceOnUse"
       id="clipPath4451"><path
         d="M 6.834e-6,0 H 458.64001 V 283.56 H 6.834e-6 Z"
         id="path4449"
         inkscape:connector-curvature="0"
         style="clip-rule:evenodd" /></clipPath><clipPath
       clipPathUnits="userSpaceOnUse"
       id="clipPath4463"><path
         d="M 6.834e-6,0 H 458.64001 V 283.56 H 6.834e-6 Z"
         id="path4461"
         inkscape:connector-curvature="0"
         style="clip-rule:evenodd" /></clipPath><clipPath
       clipPathUnits="userSpaceOnUse"
       id="clipPath4475"><path
         d="M 6.834e-6,0 H 458.64001 V 283.56 H 6.834e-6 Z"
         id="path4473"
         inkscape:connector-curvature="0"
         style="clip-rule:evenodd" /></clipPath><clipPath
       clipPathUnits="userSpaceOnUse"
       id="clipPath4487"><path
         d="M 6.834e-6,0 H 458.64001 V 283.56 H 6.834e-6 Z"
         id="path4485"
         inkscape:connector-curvature="0"
         style="clip-rule:evenodd" /></clipPath><clipPath
       clipPathUnits="userSpaceOnUse"
       id="clipPath4501"><path
         d="M 6.834e-6,0 H 458.64001 V 283.56 H 6.834e-6 Z"
         id="path4499"
         inkscape:connector-curvature="0"
         style="clip-rule:evenodd" /></clipPath><clipPath
       clipPathUnits="userSpaceOnUse"
       id="clipPath4513"><path
         d="M 6.834e-6,0 H 458.64001 V 283.56 H 6.834e-6 Z"
         id="path4511"
         inkscape:connector-curvature="0"
         style="clip-rule:evenodd" /></clipPath><clipPath
       clipPathUnits="userSpaceOnUse"
       id="clipPath4525"><path
         d="M 6.834e-6,0 H 458.64001 V 283.56 H 6.834e-6 Z"
         id="path4523"
         inkscape:connector-curvature="0"
         style="clip-rule:evenodd" /></clipPath><clipPath
       clipPathUnits="userSpaceOnUse"
       id="clipPath4541"><path
         d="M 6.834e-6,0 H 458.64001 V 283.56 H 6.834e-6 Z"
         id="path4539"
         inkscape:connector-curvature="0"
         style="clip-rule:evenodd" /></clipPath><clipPath
       clipPathUnits="userSpaceOnUse"
       id="clipPath4553"><path
         d="M 6.834e-6,0 H 458.64001 V 283.56 H 6.834e-6 Z"
         id="path4551"
         inkscape:connector-curvature="0"
         style="clip-rule:evenodd" /></clipPath><clipPath
       clipPathUnits="userSpaceOnUse"
       id="clipPath4569"><path
         d="M 6.834e-6,0 H 458.64001 V 283.56 H 6.834e-6 Z"
         id="path4567"
         inkscape:connector-curvature="0"
         style="clip-rule:evenodd" /></clipPath><clipPath
       clipPathUnits="userSpaceOnUse"
       id="clipPath4581"><path
         d="M 6.834e-6,0 H 458.64001 V 283.56 H 6.834e-6 Z"
         id="path4579"
         inkscape:connector-curvature="0"
         style="clip-rule:evenodd" /></clipPath><clipPath
       clipPathUnits="userSpaceOnUse"
       id="clipPath4593"><path
         d="M 6.942e-6,283.56 H 458.64 V 6.1035e-5 H -2.901e-6"
         id="path4591"
         inkscape:connector-curvature="0"
         style="clip-rule:evenodd" /></clipPath><clipPath
       clipPathUnits="userSpaceOnUse"
       id="clipPath4603"><path
         d="M 7.29e-6,283.56 H 458.64 V 6.1035e-5 H -1.2395e-5"
         id="path4601"
         inkscape:connector-curvature="0"
         style="clip-rule:evenodd" /></clipPath><clipPath
       clipPathUnits="userSpaceOnUse"
       id="clipPath4613"><path
         d="M 4.892e-6,283.56 H 458.64 V 0 H 1.4734e-5"
         id="path4611"
         inkscape:connector-curvature="0"
         style="clip-rule:evenodd" /></clipPath><clipPath
       clipPathUnits="userSpaceOnUse"
       id="clipPath4623"><path
         d="M -3.49e-6,283.56 H 458.64 V 0 H 1.6195e-5"
         id="path4621"
         inkscape:connector-curvature="0"
         style="clip-rule:evenodd" /></clipPath><clipPath
       clipPathUnits="userSpaceOnUse"
       id="clipPath4633"><path
         d="M 6.834e-6,0 H 458.64001 V 283.56 H 6.834e-6 Z"
         id="path4631"
         inkscape:connector-curvature="0"
         style="clip-rule:evenodd" /></clipPath><clipPath
       clipPathUnits="userSpaceOnUse"
       id="clipPath4645"><path
         d="M 6.834e-6,0 H 458.64001 V 283.56 H 6.834e-6 Z"
         id="path4643"
         inkscape:connector-curvature="0"
         style="clip-rule:evenodd" /></clipPath><clipPath
       clipPathUnits="userSpaceOnUse"
       id="clipPath4657"><path
         d="M 6.834e-6,0 H 458.64001 V 283.56 H 6.834e-6 Z"
         id="path4655"
         inkscape:connector-curvature="0"
         style="clip-rule:evenodd" /></clipPath><clipPath
       clipPathUnits="userSpaceOnUse"
       id="clipPath4669"><path
         d="M 6.834e-6,0 H 458.64001 V 283.56 H 6.834e-6 Z"
         id="path4667"
         inkscape:connector-curvature="0"
         style="clip-rule:evenodd" /></clipPath></defs><sodipodi:namedview
     pagecolor="#ffffff"
     bordercolor="#666666"
     borderopacity="1"
     objecttolerance="10"
     gridtolerance="10"
     guidetolerance="10"
     inkscape:pageopacity="0"
     inkscape:pageshadow="2"
     inkscape:window-width="1920"
     inkscape:window-height="986"
     id="namedview4423"
     showgrid="false"
     inkscape:zoom="2.0339611"
     inkscape:cx="305.76001"
     inkscape:cy="189.03999"
     inkscape:window-x="-11"
     inkscape:window-y="-11"
     inkscape:window-maximized="1"
     inkscape:current-layer="g4429" /><g
     id="g4429"
     inkscape:groupmode="layer"
     inkscape:label="f03"
     transform="matrix(1.3333333,0,0,-1.3333333,0,378.08)"><g
       id="g4431"><g
         id="g4433"
         clip-path="url(#clipPath4437)"><path
           d="M 0,3.0518e-5 H 458.64 V 283.56003 H 0 Z"
           style="fill:#ffffff;fill-opacity:1;fill-rule:evenodd;stroke:none"
           id="path4439"
           inkscape:connector-curvature="0" /></g></g><path
       d="M 28.32,28.44 H 430.27"
       style="fill:none;stroke:#000000;stroke-width:0.95999998;stroke-linecap:butt;stroke-linejoin:miter;stroke-miterlimit:10;stroke-dasharray:none;stroke-opacity:1"
       id="path4441"
       inkscape:connector-curvature="0" /><path
       d="M 28.44,28.468 V 255.24"
       style="fill:none;stroke:#000000;stroke-width:0.47999999;stroke-linecap:butt;stroke-linejoin:miter;stroke-miterlimit:10;stroke-dasharray:none;stroke-opacity:1"
       id="path4443"
       inkscape:connector-curvature="0" /><g
       id="g4445"><g
         id="g4447"
         clip-path="url(#clipPath4451)"><text
           transform="matrix(1,0,0,-1,225.43,9.672)"
           style="font-variant:normal;font-weight:normal;font-size:12px;font-family:Arial;-inkscape-font-specification:ArialMT;writing-mode:lr-tb;fill:#000000;fill-opacity:1;fill-rule:nonzero;stroke:none"
           id="text4455"><tspan
             x="0"
             y="0"
             id="tspan4453">X</tspan></text>
</g></g><g
       id="g4457"><g
         id="g4459"
         clip-path="url(#clipPath4463)"><text
           transform="matrix(-4.4e-8,-1,-1,4.4e-8,9.744,145.46)"
           style="font-variant:normal;font-weight:normal;font-size:12px;font-family:Arial;-inkscape-font-specification:ArialMT;writing-mode:lr-tb;fill:#000000;fill-opacity:1;fill-rule:nonzero;stroke:none"
           id="text4467"><tspan
             x="0"
             y="0"
             id="tspan4465">Z</tspan></text>
</g></g><g
       id="g4469"><g
         id="g4471"
         clip-path="url(#clipPath4475)"><text
           transform="matrix(1,0,0,-1,196.2,34.824)"
           style="font-variant:normal;font-weight:normal;font-size:12px;font-family:Arial;-inkscape-font-specification:ArialMT;writing-mode:lr-tb;fill:#000000;fill-opacity:1;fill-rule:nonzero;stroke:none"
           id="text4479"><tspan
             x="0 8.0279999 14.736 21.444 24.563999 32.591999 39.299999 43.296001 46.728001 53.436001 59.436001"
             y="0"
             sodipodi:role="line"
             id="tspan4477">Sea Surface</tspan></text>
</g></g><g
       id="g4481"><g
         id="g4483"
         clip-path="url(#clipPath4487)"><text
           transform="matrix(1,0,0,-1,124.56,236.38)"
           style="font-variant:normal;font-weight:normal;font-size:12.02400017px;font-family:Arial;-inkscape-font-specification:ArialMT;writing-mode:lr-tb;fill:#0000ff;fill-opacity:1;fill-rule:nonzero;stroke:none"
           id="text4491"><tspan
             x="0"
             y="0"
             id="tspan4489">H</tspan></text>
</g></g><path
       d="m 28.44,226.78 c 33.46,14.52 66.92,29.05 100.38,29.18 33.46,0.13 100.38,-28.38 100.38,-28.38 33.46,-9.46 66.92,-28.38 100.38,-28.38 33.46,0 66.92,14.19 100.38,28.38"
       style="fill:none;stroke:#0000ff;stroke-width:0.95999998;stroke-linecap:butt;stroke-linejoin:miter;stroke-miterlimit:10;stroke-dasharray:none;stroke-opacity:1"
       id="path4493"
       inkscape:connector-curvature="0" /><g
       id="g4495"><g
         id="g4497"
         clip-path="url(#clipPath4501)"><text
           transform="matrix(1,0,0,-1,36.12,261.67)"
           style="font-variant:normal;font-weight:normal;font-size:12px;font-family:Arial;-inkscape-font-specification:ArialMT;writing-mode:lr-tb;fill:#0000ff;fill-opacity:1;fill-rule:nonzero;stroke:none"
           id="text4505"><tspan
             x="0 9.3360004 16.068001 22.775999 28.775999"
             y="0"
             sodipodi:role="line"
             id="tspan4503">Quasi</tspan></text>
</g></g><g
       id="g4507"><g
         id="g4509"
         clip-path="url(#clipPath4513)"><text
           transform="matrix(1,0,0,-1,67.56,261.67)"
           style="font-variant:normal;font-weight:normal;font-size:12px;font-family:Arial;-inkscape-font-specification:ArialMT;writing-mode:lr-tb;fill:#0000ff;fill-opacity:1;fill-rule:nonzero;stroke:none"
           id="text4517"><tspan
             x="0"
             y="0"
             id="tspan4515">-</tspan></text>
</g></g><g
       id="g4519"><g
         id="g4521"
         clip-path="url(#clipPath4525)"><text
           transform="matrix(1,0,0,-1,71.52,261.67)"
           style="font-variant:normal;font-weight:normal;font-size:12px;font-family:Arial;-inkscape-font-specification:ArialMT;writing-mode:lr-tb;fill:#0000ff;fill-opacity:1;fill-rule:nonzero;stroke:none"
           id="text4529"><tspan
             x="0 8.6639996 14.52 21.228001 25.224001 31.896 37.896 41.256001 47.964001 51.299999 53.964001 59.964001 63.084 66.419998 72.419998 79.152 85.860001 92.568001 96.564003 99.167999 105.168 108.288 116.316 123.024 127.02 130.452 137.16 143.16"
             y="0"
             sodipodi:role="line"
             id="tspan4527">Hydrostatic Isobaric Surface</tspan></text>
</g></g><g
       id="g4531"><path
         d="M 28.32,226.92 H 430.27"
         style="fill:none;stroke:#00ff00;stroke-width:0.95999998;stroke-linecap:butt;stroke-linejoin:miter;stroke-miterlimit:10;stroke-dasharray:3.84, 2.88;stroke-dashoffset:0;stroke-opacity:1"
         id="path4533"
         inkscape:connector-curvature="0" /></g><g
       id="g4535"><g
         id="g4537"
         clip-path="url(#clipPath4541)"><text
           transform="matrix(1,0,0,-1,254.66,233.33)"
           style="font-variant:normal;font-weight:normal;font-size:12px;font-family:Arial;-inkscape-font-specification:ArialMT;writing-mode:lr-tb;fill:#00ff00;fill-opacity:1;fill-rule:nonzero;stroke:none"
           id="text4545"><tspan
             x="0 8.6639996 14.52 21.228001 25.224001 31.896 37.896 41.256001 47.964001 51.299999 53.964001 59.964001 63.203999 66.540001 72.540001 79.272003 85.980003 92.688004 96.683998 99.288002 105.288 108.408 116.436 123.144 127.14 130.57201 137.28 143.28"
             y="0"
             sodipodi:role="line"
             id="tspan4543">Hydrostatic Isobaric Surface</tspan></text>
</g></g><g
       id="g4547"><g
         id="g4549"
         clip-path="url(#clipPath4553)"><text
           transform="matrix(1,0,0,-1,326.5,208.25)"
           style="font-variant:normal;font-weight:normal;font-size:12.02400017px;font-family:Arial;-inkscape-font-specification:ArialMT;writing-mode:lr-tb;fill:#0000ff;fill-opacity:1;fill-rule:nonzero;stroke:none"
           id="text4557"><tspan
             x="0"
             y="0"
             id="tspan4555">L</tspan></text>
</g></g><path
       d="m 128.7,126.12 h 49.19 v 3 H 128.7 Z m 47.69,-3 9,4.5 -9,4.5 z"
       style="fill:#000000;fill-opacity:1;fill-rule:nonzero;stroke:none"
       id="path4559"
       inkscape:connector-curvature="0" /><path
       d="m 280.56,126.12 h 49.19 v 3 h -49.19 z m 1.5,6 -9,-4.5 9,-4.5 z"
       style="fill:#000000;fill-opacity:1;fill-rule:nonzero;stroke:none"
       id="path4561"
       inkscape:connector-curvature="0" /><g
       id="g4563"><g
         id="g4565"
         clip-path="url(#clipPath4569)"><text
           transform="matrix(1,0,0,-1,135.89,134.06)"
           style="font-variant:normal;font-weight:normal;font-size:12px;font-family:Arial;-inkscape-font-specification:ArialMT;writing-mode:lr-tb;fill:#000000;fill-opacity:1;fill-rule:nonzero;stroke:none"
           id="text4573"><tspan
             x="0 11.748 14.412 20.988001"
             y="0"
             sodipodi:role="line"
             id="tspan4571">Wind</tspan></text>
</g></g><g
       id="g4575"><g
         id="g4577"
         clip-path="url(#clipPath4581)"><text
           transform="matrix(1,0,0,-1,294.91,134.06)"
           style="font-variant:normal;font-weight:normal;font-size:12px;font-family:Arial;-inkscape-font-specification:ArialMT;writing-mode:lr-tb;fill:#000000;fill-opacity:1;fill-rule:nonzero;stroke:none"
           id="text4585"><tspan
             x="0 11.748 14.412 20.988001"
             y="0"
             sodipodi:role="line"
             id="tspan4583">Wind</tspan></text>
</g></g><g
       id="g4587"><g
         id="g4589"
         clip-path="url(#clipPath4593)"><path
           d="M 127.2,127.62 V 78.427 h 3 v 49.193 z m -3,-47.693 4.5,-9 4.5,9 z"
           style="fill:#0000ff;fill-opacity:1;fill-rule:nonzero;stroke:none"
           id="path4595"
           inkscape:connector-curvature="0" /></g></g><g
       id="g4597"><g
         id="g4599"
         clip-path="url(#clipPath4603)"><path
           d="M 328.2,127.62 V 78.427 h 3 v 49.193 z m -3,-47.693 4.5,-9 4.5,9 z"
           style="fill:#ff0000;fill-opacity:1;fill-rule:nonzero;stroke:none"
           id="path4605"
           inkscape:connector-curvature="0" /></g></g><g
       id="g4607"><g
         id="g4609"
         clip-path="url(#clipPath4613)"><path
           d="m 130.2,127.57 v 49.19 h -3 v -49.19 z m 3,47.69 -4.5,9 -4.5,-9 z"
           style="fill:#ff0000;fill-opacity:1;fill-rule:nonzero;stroke:none"
           id="path4615"
           inkscape:connector-curvature="0" /></g></g><g
       id="g4617"><g
         id="g4619"
         clip-path="url(#clipPath4623)"><path
           d="m 331.2,127.57 v 49.19 h -3 v -49.19 z m 3,47.69 -4.5,9 -4.5,-9 z"
           style="fill:#0000ff;fill-opacity:1;fill-rule:nonzero;stroke:none"
           id="path4625"
           inkscape:connector-curvature="0" /></g></g><g
       id="g4627"><g
         id="g4629"
         clip-path="url(#clipPath4633)"><text
           transform="matrix(1,0,0,-1,116.06,184.87)"
           style="font-variant:normal;font-weight:normal;font-size:12px;font-family:Arial;-inkscape-font-specification:ArialMT;writing-mode:lr-tb;fill:#ff0000;fill-opacity:1;fill-rule:nonzero;stroke:none"
           id="text4637"><tspan
             x="0 8.6400003 17.280001"
             y="0"
             sodipodi:role="line"
             id="tspan4635">NCT</tspan></text>
</g></g><g
       id="g4639"><g
         id="g4641"
         clip-path="url(#clipPath4645)"><text
           transform="matrix(1,0,0,-1,317.3,55.512)"
           style="font-variant:normal;font-weight:normal;font-size:12px;font-family:Arial;-inkscape-font-specification:ArialMT;writing-mode:lr-tb;fill:#ff0000;fill-opacity:1;fill-rule:nonzero;stroke:none"
           id="text4649"><tspan
             x="0 8.6640005 17.328001"
             y="0"
             sodipodi:role="line"
             id="tspan4647">NCT</tspan></text>
</g></g><g
       id="g4651"><g
         id="g4653"
         clip-path="url(#clipPath4657)"><text
           transform="matrix(1,0,0,-1,115.42,55.872)"
           style="font-variant:normal;font-weight:normal;font-size:12px;font-family:Arial;-inkscape-font-specification:ArialMT;writing-mode:lr-tb;fill:#0000ff;fill-opacity:1;fill-rule:nonzero;stroke:none"
           id="text4661"><tspan
             x="0 8.0279999 17.364 24.695999"
             y="0"
             sodipodi:role="line"
             id="tspan4659">PGF'</tspan></text>
</g></g><g
       id="g4663"><g
         id="g4665"
         clip-path="url(#clipPath4669)"><text
           transform="matrix(1,0,0,-1,318.02,185.23)"
           style="font-variant:normal;font-weight:normal;font-size:12px;font-family:Arial;-inkscape-font-specification:ArialMT;writing-mode:lr-tb;fill:#0000ff;fill-opacity:1;fill-rule:nonzero;stroke:none"
           id="text4673"><tspan
             x="0 8.0279999 17.364 24.695999"
             y="0"
             sodipodi:role="line"
             id="tspan4671">PGF'</tspan></text>
</g></g></g></svg>