<?xml version="1.0" encoding="UTF-8" standalone="no"?>
<!-- Created with Inkscape (http://www.inkscape.org/) -->

<svg
   xmlns:dc="http://purl.org/dc/elements/1.1/"
   xmlns:cc="http://creativecommons.org/ns#"
   xmlns:rdf="http://www.w3.org/1999/02/22-rdf-syntax-ns#"
   xmlns:svg="http://www.w3.org/2000/svg"
   xmlns="http://www.w3.org/2000/svg"
   xmlns:sodipodi="http://sodipodi.sourceforge.net/DTD/sodipodi-0.dtd"
   xmlns:inkscape="http://www.inkscape.org/namespaces/inkscape"
   version="1.1"
   id="svg2"
   xml:space="preserve"
   width="1171.6801"
   height="1322.88"
   viewBox="0 0 1171.6801 1322.88"
   sodipodi:docname="Research_2.svg"
   inkscape:version="0.92.3 (2405546, 2018-03-11)"><metadata
     id="metadata8"><rdf:RDF><cc:Work
         rdf:about=""><dc:format>image/svg+xml</dc:format><dc:type
           rdf:resource="http://purl.org/dc/dcmitype/StillImage" /><dc:title></dc:title></cc:Work></rdf:RDF></metadata><defs
     id="defs6"><clipPath
       clipPathUnits="userSpaceOnUse"
       id="clipPath18"><path
         d="M 0,2.4414e-4 H 878.76 V 992.16024 H 0 Z"
         id="path16"
         inkscape:connector-curvature="0"
         style="clip-rule:evenodd" /></clipPath><clipPath
       clipPathUnits="userSpaceOnUse"
       id="clipPath40"><path
         d="M -6.1035e-5,992.16 H 878.76 V 1.2207e-4 H -6.1035e-5"
         id="path38"
         inkscape:connector-curvature="0"
         style="clip-rule:evenodd" /></clipPath><clipPath
       clipPathUnits="userSpaceOnUse"
       id="clipPath50"><path
         d="M -6.1035e-5,992.16 H 878.76 V 6.1035e-5 H -6.1035e-5"
         id="path48"
         inkscape:connector-curvature="0"
         style="clip-rule:evenodd" /></clipPath><clipPath
       clipPathUnits="userSpaceOnUse"
       id="clipPath60"><path
         d="M -6.1035e-5,992.16 H 878.76 V 6.1035e-5 L -6.1035e-5,1.2207e-4"
         id="path58"
         inkscape:connector-curvature="0"
         style="clip-rule:evenodd" /></clipPath><clipPath
       clipPathUnits="userSpaceOnUse"
       id="clipPath70"><path
         d="M -6.1035e-5,992.16 H 878.76 V 6.1035e-5 L -6.1035e-5,1.2207e-4"
         id="path68"
         inkscape:connector-curvature="0"
         style="clip-rule:evenodd" /></clipPath><clipPath
       clipPathUnits="userSpaceOnUse"
       id="clipPath80"><path
         d="M 9.1553e-5,992.16 H 878.76 V 3.6621e-4 L 1.2207e-4,3.0518e-4"
         id="path78"
         inkscape:connector-curvature="0"
         style="clip-rule:evenodd" /></clipPath><clipPath
       clipPathUnits="userSpaceOnUse"
       id="clipPath90"><path
         d="M 9.1553e-5,992.16 H 878.76 V 3.0518e-4 L 1.2207e-4,2.4414e-4"
         id="path88"
         inkscape:connector-curvature="0"
         style="clip-rule:evenodd" /></clipPath><clipPath
       clipPathUnits="userSpaceOnUse"
       id="clipPath100"><path
         d="M 9.1553e-5,992.16 H 878.76 V 4.2725e-4 L 1.2207e-4,3.6621e-4"
         id="path98"
         inkscape:connector-curvature="0"
         style="clip-rule:evenodd" /></clipPath><clipPath
       clipPathUnits="userSpaceOnUse"
       id="clipPath110"><path
         d="M 9.1553e-5,992.16 H 878.76 V 3.0518e-4 L 1.2207e-4,2.4414e-4"
         id="path108"
         inkscape:connector-curvature="0"
         style="clip-rule:evenodd" /></clipPath><linearGradient
       x1="439.38"
       y1="425.64999"
       x2="439.38"
       y2="991.72998"
       gradientUnits="userSpaceOnUse"
       spreadMethod="pad"
       id="linearGradient130"><stop
         style="stop-opacity:1;stop-color:#ff0000"
         offset="0"
         id="stop116" /><stop
         style="stop-opacity:1;stop-color:#ff0000"
         offset="0.125"
         id="stop118" /><stop
         style="stop-opacity:1;stop-color:#ffff00"
         offset="0.375"
         id="stop120" /><stop
         style="stop-opacity:1;stop-color:#ffff00"
         offset="0.5"
         id="stop122" /><stop
         style="stop-opacity:1;stop-color:#ffff00"
         offset="0.625"
         id="stop124" /><stop
         style="stop-opacity:1;stop-color:#ff0000"
         offset="0.875"
         id="stop126" /><stop
         style="stop-opacity:1;stop-color:#ff0000"
         offset="1"
         id="stop128" /></linearGradient><clipPath
       clipPathUnits="userSpaceOnUse"
       id="clipPath140"><path
         d="M -3.0518e-5,992.16 H 878.76 V 1.2207e-4 H -3.0518e-5"
         id="path138"
         inkscape:connector-curvature="0"
         style="clip-rule:evenodd" /></clipPath><clipPath
       clipPathUnits="userSpaceOnUse"
       id="clipPath150"><path
         d="M -1.5259e-5,992.16 H 878.76 V 6.1035e-5 L -1.5259e-5,1.2207e-4"
         id="path148"
         inkscape:connector-curvature="0"
         style="clip-rule:evenodd" /></clipPath><clipPath
       clipPathUnits="userSpaceOnUse"
       id="clipPath160"><path
         d="M -1.8311e-4,992.16 H 878.76 V 1.2207e-4 H -1.2207e-4"
         id="path158"
         inkscape:connector-curvature="0"
         style="clip-rule:evenodd" /></clipPath><clipPath
       clipPathUnits="userSpaceOnUse"
       id="clipPath170"><path
         d="M -1.2207e-4,992.16 H 878.76 V 6.1035e-5 L -6.1035e-5,1.2207e-4"
         id="path168"
         inkscape:connector-curvature="0"
         style="clip-rule:evenodd" /></clipPath><clipPath
       clipPathUnits="userSpaceOnUse"
       id="clipPath180"><path
         d="M 1.3095e-5,-6.1035e-5 H 878.76001 V 992.15994 H 1.3095e-5 Z"
         id="path178"
         inkscape:connector-curvature="0"
         style="clip-rule:evenodd" /></clipPath><clipPath
       clipPathUnits="userSpaceOnUse"
       id="clipPath194"><path
         d="M -1.907e-6,992.16 H 878.76 V 1.2207e-4 H -1.907e-6"
         id="path192"
         inkscape:connector-curvature="0"
         style="clip-rule:evenodd" /></clipPath><clipPath
       clipPathUnits="userSpaceOnUse"
       id="clipPath204"><path
         d="M 1.3095e-5,-6.1035e-5 H 878.76001 V 992.15994 H 1.3095e-5 Z"
         id="path202"
         inkscape:connector-curvature="0"
         style="clip-rule:evenodd" /></clipPath><clipPath
       clipPathUnits="userSpaceOnUse"
       id="clipPath228"><path
         d="M -6.1035e-5,992.16 H 878.76 V 6.1035e-5 L -6.1035e-5,1.2207e-4"
         id="path226"
         inkscape:connector-curvature="0"
         style="clip-rule:evenodd" /></clipPath><clipPath
       clipPathUnits="userSpaceOnUse"
       id="clipPath238"><path
         d="M -6.1035e-5,992.16 H 878.76 V 6.1035e-5 L -6.1035e-5,1.2207e-4"
         id="path236"
         inkscape:connector-curvature="0"
         style="clip-rule:evenodd" /></clipPath><clipPath
       clipPathUnits="userSpaceOnUse"
       id="clipPath248"><path
         d="M -6.1035e-5,992.16 H 878.76 V 0 L -6.1035e-5,6.1035e-5"
         id="path246"
         inkscape:connector-curvature="0"
         style="clip-rule:evenodd" /></clipPath><clipPath
       clipPathUnits="userSpaceOnUse"
       id="clipPath258"><path
         d="M -6.1035e-5,992.16 H 878.76 V 6.1035e-5 L -6.1035e-5,1.2207e-4"
         id="path256"
         inkscape:connector-curvature="0"
         style="clip-rule:evenodd" /></clipPath><clipPath
       clipPathUnits="userSpaceOnUse"
       id="clipPath268"><path
         d="M 9.1553e-5,992.16 H 878.76 V 3.0518e-4 L 1.2207e-4,2.4414e-4"
         id="path266"
         inkscape:connector-curvature="0"
         style="clip-rule:evenodd" /></clipPath><clipPath
       clipPathUnits="userSpaceOnUse"
       id="clipPath278"><path
         d="M 9.1553e-5,992.16 H 878.76 V 3.0518e-4 L 1.2207e-4,2.4414e-4"
         id="path276"
         inkscape:connector-curvature="0"
         style="clip-rule:evenodd" /></clipPath><clipPath
       clipPathUnits="userSpaceOnUse"
       id="clipPath288"><path
         d="M 9.1553e-5,992.16 H 878.76 V 3.0518e-4 L 1.2207e-4,2.4414e-4"
         id="path286"
         inkscape:connector-curvature="0"
         style="clip-rule:evenodd" /></clipPath><clipPath
       clipPathUnits="userSpaceOnUse"
       id="clipPath298"><path
         d="M 9.1553e-5,992.16 H 878.76 V 3.0518e-4 L 1.2207e-4,2.4414e-4"
         id="path296"
         inkscape:connector-curvature="0"
         style="clip-rule:evenodd" /></clipPath><linearGradient
       x1="439.38"
       y1="113.77"
       x2="439.38"
       y2="679.84998"
       gradientUnits="userSpaceOnUse"
       spreadMethod="pad"
       id="linearGradient318"><stop
         style="stop-opacity:1;stop-color:#ff0000"
         offset="0"
         id="stop304" /><stop
         style="stop-opacity:1;stop-color:#ff0000"
         offset="0.125"
         id="stop306" /><stop
         style="stop-opacity:1;stop-color:#ffff00"
         offset="0.375"
         id="stop308" /><stop
         style="stop-opacity:1;stop-color:#ffff00"
         offset="0.5"
         id="stop310" /><stop
         style="stop-opacity:1;stop-color:#ffff00"
         offset="0.625"
         id="stop312" /><stop
         style="stop-opacity:1;stop-color:#ff0000"
         offset="0.875"
         id="stop314" /><stop
         style="stop-opacity:1;stop-color:#ff0000"
         offset="1"
         id="stop316" /></linearGradient><clipPath
       clipPathUnits="userSpaceOnUse"
       id="clipPath328"><path
         d="M 1.3095e-5,-6.1035e-5 H 878.76001 V 992.15994 H 1.3095e-5 Z"
         id="path326"
         inkscape:connector-curvature="0"
         style="clip-rule:evenodd" /></clipPath><clipPath
       clipPathUnits="userSpaceOnUse"
       id="clipPath342"><path
         d="M -1.907e-6,992.16 H 878.76 V 6.1035e-5 L -1.907e-6,1.2207e-4"
         id="path340"
         inkscape:connector-curvature="0"
         style="clip-rule:evenodd" /></clipPath><clipPath
       clipPathUnits="userSpaceOnUse"
       id="clipPath352"><path
         d="M 1.3095e-5,-6.1035e-5 H 878.76001 V 992.15994 H 1.3095e-5 Z"
         id="path350"
         inkscape:connector-curvature="0"
         style="clip-rule:evenodd" /></clipPath><clipPath
       clipPathUnits="userSpaceOnUse"
       id="clipPath378"><path
         d="M 1.3095e-5,-6.1035e-5 H 878.76001 V 992.15994 H 1.3095e-5 Z"
         id="path376"
         inkscape:connector-curvature="0"
         style="clip-rule:evenodd" /></clipPath><clipPath
       clipPathUnits="userSpaceOnUse"
       id="clipPath392"><path
         d="M -1.907e-6,992.16 H 878.76 V 0 L -1.907e-6,6.1035e-5"
         id="path390"
         inkscape:connector-curvature="0"
         style="clip-rule:evenodd" /></clipPath><clipPath
       clipPathUnits="userSpaceOnUse"
       id="clipPath402"><path
         d="M 1.3095e-5,-6.1035e-5 H 878.76001 V 992.15994 H 1.3095e-5 Z"
         id="path400"
         inkscape:connector-curvature="0"
         style="clip-rule:evenodd" /></clipPath><clipPath
       clipPathUnits="userSpaceOnUse"
       id="clipPath420"><path
         d="M -3.0518e-5,992.16 H 878.76 V -1.2207e-4 L -3.0518e-5,-6.1035e-5"
         id="path418"
         inkscape:connector-curvature="0"
         style="clip-rule:evenodd" /></clipPath><clipPath
       clipPathUnits="userSpaceOnUse"
       id="clipPath430"><path
         d="M -1.5259e-5,992.16 H 878.76 V -6.1035e-5 L -1.5259e-5,0"
         id="path428"
         inkscape:connector-curvature="0"
         style="clip-rule:evenodd" /></clipPath><clipPath
       clipPathUnits="userSpaceOnUse"
       id="clipPath440"><path
         d="M -1.8311e-4,992.16 H 878.76 V 1.2207e-4 L -1.2207e-4,1.8311e-4"
         id="path438"
         inkscape:connector-curvature="0"
         style="clip-rule:evenodd" /></clipPath><clipPath
       clipPathUnits="userSpaceOnUse"
       id="clipPath450"><path
         d="M -1.2207e-4,992.16 H 878.76 V 1.8311e-4 L -6.1035e-5,2.4414e-4"
         id="path448"
         inkscape:connector-curvature="0"
         style="clip-rule:evenodd" /></clipPath><clipPath
       clipPathUnits="userSpaceOnUse"
       id="clipPath460"><path
         d="M 1.3095e-5,-6.1035e-5 H 878.76001 V 992.15994 H 1.3095e-5 Z"
         id="path458"
         inkscape:connector-curvature="0"
         style="clip-rule:evenodd" /></clipPath><clipPath
       clipPathUnits="userSpaceOnUse"
       id="clipPath472"><path
         d="M 1.3095e-5,-6.1035e-5 H 878.76001 V 992.15994 H 1.3095e-5 Z"
         id="path470"
         inkscape:connector-curvature="0"
         style="clip-rule:evenodd" /></clipPath><clipPath
       clipPathUnits="userSpaceOnUse"
       id="clipPath484"><path
         d="M 1.3095e-5,-6.1035e-5 H 878.76001 V 992.15994 H 1.3095e-5 Z"
         id="path482"
         inkscape:connector-curvature="0"
         style="clip-rule:evenodd" /></clipPath><clipPath
       clipPathUnits="userSpaceOnUse"
       id="clipPath496"><path
         d="M 1.3095e-5,-6.1035e-5 H 878.76001 V 992.15994 H 1.3095e-5 Z"
         id="path494"
         inkscape:connector-curvature="0"
         style="clip-rule:evenodd" /></clipPath><clipPath
       clipPathUnits="userSpaceOnUse"
       id="clipPath508"><path
         d="M 1.3095e-5,-6.1035e-5 H 878.76001 V 992.15994 H 1.3095e-5 Z"
         id="path506"
         inkscape:connector-curvature="0"
         style="clip-rule:evenodd" /></clipPath><clipPath
       clipPathUnits="userSpaceOnUse"
       id="clipPath520"><path
         d="M 1.3095e-5,-6.1035e-5 H 878.76001 V 992.15994 H 1.3095e-5 Z"
         id="path518"
         inkscape:connector-curvature="0"
         style="clip-rule:evenodd" /></clipPath><clipPath
       clipPathUnits="userSpaceOnUse"
       id="clipPath532"><path
         d="M 1.3095e-5,-6.1035e-5 H 878.76001 V 992.15994 H 1.3095e-5 Z"
         id="path530"
         inkscape:connector-curvature="0"
         style="clip-rule:evenodd" /></clipPath><clipPath
       clipPathUnits="userSpaceOnUse"
       id="clipPath544"><path
         d="M 1.3095e-5,-6.1035e-5 H 878.76001 V 992.15994 H 1.3095e-5 Z"
         id="path542"
         inkscape:connector-curvature="0"
         style="clip-rule:evenodd" /></clipPath><clipPath
       clipPathUnits="userSpaceOnUse"
       id="clipPath556"><path
         d="M 1.3095e-5,-6.1035e-5 H 878.76001 V 992.15994 H 1.3095e-5 Z"
         id="path554"
         inkscape:connector-curvature="0"
         style="clip-rule:evenodd" /></clipPath><clipPath
       clipPathUnits="userSpaceOnUse"
       id="clipPath568"><path
         d="M 1.3095e-5,-6.1035e-5 H 878.76001 V 992.15994 H 1.3095e-5 Z"
         id="path566"
         inkscape:connector-curvature="0"
         style="clip-rule:evenodd" /></clipPath><clipPath
       clipPathUnits="userSpaceOnUse"
       id="clipPath580"><path
         d="M 1.3095e-5,-6.1035e-5 H 878.76001 V 992.15994 H 1.3095e-5 Z"
         id="path578"
         inkscape:connector-curvature="0"
         style="clip-rule:evenodd" /></clipPath><clipPath
       clipPathUnits="userSpaceOnUse"
       id="clipPath592"><path
         d="M 1.3095e-5,-6.1035e-5 H 878.76001 V 992.15994 H 1.3095e-5 Z"
         id="path590"
         inkscape:connector-curvature="0"
         style="clip-rule:evenodd" /></clipPath><clipPath
       clipPathUnits="userSpaceOnUse"
       id="clipPath604"><path
         d="M 1.3095e-5,-6.1035e-5 H 878.76001 V 992.15994 H 1.3095e-5 Z"
         id="path602"
         inkscape:connector-curvature="0"
         style="clip-rule:evenodd" /></clipPath><clipPath
       clipPathUnits="userSpaceOnUse"
       id="clipPath616"><path
         d="M 1.3095e-5,-6.1035e-5 H 878.76001 V 992.15994 H 1.3095e-5 Z"
         id="path614"
         inkscape:connector-curvature="0"
         style="clip-rule:evenodd" /></clipPath><clipPath
       clipPathUnits="userSpaceOnUse"
       id="clipPath628"><path
         d="M 1.3095e-5,-6.1035e-5 H 878.76001 V 992.15994 H 1.3095e-5 Z"
         id="path626"
         inkscape:connector-curvature="0"
         style="clip-rule:evenodd" /></clipPath><clipPath
       clipPathUnits="userSpaceOnUse"
       id="clipPath640"><path
         d="M 1.3095e-5,-6.1035e-5 H 878.76001 V 992.15994 H 1.3095e-5 Z"
         id="path638"
         inkscape:connector-curvature="0"
         style="clip-rule:evenodd" /></clipPath><clipPath
       clipPathUnits="userSpaceOnUse"
       id="clipPath652"><path
         d="M 1.3095e-5,-6.1035e-5 H 878.76001 V 992.15994 H 1.3095e-5 Z"
         id="path650"
         inkscape:connector-curvature="0"
         style="clip-rule:evenodd" /></clipPath><clipPath
       clipPathUnits="userSpaceOnUse"
       id="clipPath664"><path
         d="M 0,992.16 H 878.76 V 3.0518e-4 H 6.1035e-5"
         id="path662"
         inkscape:connector-curvature="0"
         style="clip-rule:evenodd" /></clipPath><clipPath
       clipPathUnits="userSpaceOnUse"
       id="clipPath676"><path
         d="M 1.3095e-5,-6.1035e-5 H 878.76001 V 992.15994 H 1.3095e-5 Z"
         id="path674"
         inkscape:connector-curvature="0"
         style="clip-rule:evenodd" /></clipPath><clipPath
       clipPathUnits="userSpaceOnUse"
       id="clipPath688"><path
         d="M 1.3095e-5,-6.1035e-5 H 878.76001 V 992.15994 H 1.3095e-5 Z"
         id="path686"
         inkscape:connector-curvature="0"
         style="clip-rule:evenodd" /></clipPath><clipPath
       clipPathUnits="userSpaceOnUse"
       id="clipPath700"><path
         d="M 6.1035e-5,992.16 H 878.76 V 3.0518e-4 H 1.2207e-4"
         id="path698"
         inkscape:connector-curvature="0"
         style="clip-rule:evenodd" /></clipPath><clipPath
       clipPathUnits="userSpaceOnUse"
       id="clipPath712"><path
         d="M 1.3095e-5,-6.1035e-5 H 878.76001 V 992.15994 H 1.3095e-5 Z"
         id="path710"
         inkscape:connector-curvature="0"
         style="clip-rule:evenodd" /></clipPath></defs><sodipodi:namedview
     pagecolor="#ffffff"
     bordercolor="#666666"
     borderopacity="1"
     objecttolerance="10"
     gridtolerance="10"
     guidetolerance="10"
     inkscape:pageopacity="0"
     inkscape:pageshadow="2"
     inkscape:window-width="1920"
     inkscape:window-height="986"
     id="namedview4"
     showgrid="false"
     inkscape:zoom="0.58130745"
     inkscape:cx="585.84003"
     inkscape:cy="661.44"
     inkscape:window-x="-11"
     inkscape:window-y="-11"
     inkscape:window-maximized="1"
     inkscape:current-layer="g10" /><g
     id="g10"
     inkscape:groupmode="layer"
     inkscape:label="f01"
     transform="matrix(1.3333333,0,0,-1.3333333,0,1322.88)"><g
       id="g12"><g
         id="g14"
         clip-path="url(#clipPath18)"><path
           d="M 0,6.1035e-5 H 878.76 V 992.16006 H 0 Z"
           style="fill:#ffffff;fill-opacity:1;fill-rule:evenodd;stroke:none"
           id="path20"
           inkscape:connector-curvature="0" /></g></g><path
       d="M 56.7,680.34 H 822.06 V 963.78 H 56.7 Z"
       style="fill:#ffffff;fill-opacity:1;fill-rule:evenodd;stroke:none"
       id="path22"
       inkscape:connector-curvature="0" /><path
       d="M 56.7,680.34 H 822.06 V 963.78 H 56.7 Z"
       style="fill:none;stroke:#000000;stroke-width:3;stroke-linecap:butt;stroke-linejoin:miter;stroke-miterlimit:10;stroke-dasharray:none;stroke-opacity:1"
       id="path24"
       inkscape:connector-curvature="0" /><path
       d="M 311.82,680.34 H 566.94 V 963.78 H 311.82 Z"
       style="fill:#ffffff;fill-opacity:1;fill-rule:evenodd;stroke:none"
       id="path26"
       inkscape:connector-curvature="0" /><path
       d="M 311.82,680.34 H 566.94 V 963.78 H 311.82 Z"
       style="fill:none;stroke:#000000;stroke-width:3;stroke-linecap:butt;stroke-linejoin:miter;stroke-miterlimit:10;stroke-dasharray:none;stroke-opacity:1"
       id="path28"
       inkscape:connector-curvature="0" /><path
       d="m 411.06,708.66 h 56.69"
       style="fill:none;stroke:#000000;stroke-width:3;stroke-linecap:butt;stroke-linejoin:miter;stroke-miterlimit:10;stroke-dasharray:none;stroke-opacity:1"
       id="path30"
       inkscape:connector-curvature="0" /><path
       d="m 411.06,935.52 c 0.13,7.85 12.94,14.16 28.61,14.1 15.58,-0.06 28.15,-6.41 28.15,-14.22"
       style="fill:none;stroke:#000000;stroke-width:3;stroke-linecap:butt;stroke-linejoin:miter;stroke-miterlimit:10;stroke-dasharray:none;stroke-opacity:1"
       id="path32"
       inkscape:connector-curvature="0" /><g
       id="g34"><g
         id="g36"
         clip-path="url(#clipPath40)"><path
           d="m 410.94,708.66 c -7.82,0.13 -14.1,12.91 -14.04,28.55 0.06,15.55 6.38,28.09 14.16,28.09"
           style="fill:none;stroke:#000000;stroke-width:3;stroke-linecap:butt;stroke-linejoin:miter;stroke-miterlimit:10;stroke-dasharray:none;stroke-opacity:1"
           id="path42"
           inkscape:connector-curvature="0" /></g></g><g
       id="g44"><g
         id="g46"
         clip-path="url(#clipPath50)"><path
           d="m 410.94,765.3 c -7.82,0.13 -14.1,12.94 -14.04,28.61 0.06,15.58 6.38,28.15 14.16,28.15"
           style="fill:none;stroke:#000000;stroke-width:3;stroke-linecap:butt;stroke-linejoin:miter;stroke-miterlimit:10;stroke-dasharray:none;stroke-opacity:1"
           id="path52"
           inkscape:connector-curvature="0" /></g></g><g
       id="g54"><g
         id="g56"
         clip-path="url(#clipPath60)"><path
           d="m 410.94,822.06 c -7.82,0.13 -14.1,12.91 -14.04,28.55 0.06,15.55 6.38,28.09 14.16,28.09"
           style="fill:none;stroke:#000000;stroke-width:3;stroke-linecap:butt;stroke-linejoin:miter;stroke-miterlimit:10;stroke-dasharray:none;stroke-opacity:1"
           id="path62"
           inkscape:connector-curvature="0" /></g></g><g
       id="g64"><g
         id="g66"
         clip-path="url(#clipPath70)"><path
           d="m 410.94,878.7 c -7.82,0.13 -14.1,12.94 -14.04,28.61 0.06,15.58 6.38,28.15 14.16,28.15"
           style="fill:none;stroke:#000000;stroke-width:3;stroke-linecap:butt;stroke-linejoin:miter;stroke-miterlimit:10;stroke-dasharray:none;stroke-opacity:1"
           id="path72"
           inkscape:connector-curvature="0" /></g></g><g
       id="g74"><g
         id="g76"
         clip-path="url(#clipPath80)"><path
           d="m 467.94,765.3 c 7.82,-0.13 14.1,-12.91 14.04,-28.55 -0.06,-15.55 -6.38,-28.09 -14.16,-28.09"
           style="fill:none;stroke:#000000;stroke-width:3;stroke-linecap:butt;stroke-linejoin:miter;stroke-miterlimit:10;stroke-dasharray:none;stroke-opacity:1"
           id="path82"
           inkscape:connector-curvature="0" /></g></g><g
       id="g84"><g
         id="g86"
         clip-path="url(#clipPath90)"><path
           d="m 467.94,822.06 c 7.82,-0.13 14.1,-12.94 14.04,-28.61 -0.06,-15.58 -6.38,-28.15 -14.16,-28.15"
           style="fill:none;stroke:#000000;stroke-width:3;stroke-linecap:butt;stroke-linejoin:miter;stroke-miterlimit:10;stroke-dasharray:none;stroke-opacity:1"
           id="path92"
           inkscape:connector-curvature="0" /></g></g><g
       id="g94"><g
         id="g96"
         clip-path="url(#clipPath100)"><path
           d="m 467.94,878.7 c 7.82,-0.13 14.1,-12.91 14.04,-28.55 -0.06,-15.55 -6.38,-28.09 -14.16,-28.09"
           style="fill:none;stroke:#000000;stroke-width:3;stroke-linecap:butt;stroke-linejoin:miter;stroke-miterlimit:10;stroke-dasharray:none;stroke-opacity:1"
           id="path102"
           inkscape:connector-curvature="0" /></g></g><g
       id="g104"><g
         id="g106"
         clip-path="url(#clipPath110)"><path
           d="m 467.94,935.82 c 7.82,-0.13 14.1,-12.91 14.04,-28.55 -0.06,-15.55 -6.38,-28.09 -14.16,-28.09"
           style="fill:none;stroke:#000000;stroke-width:3;stroke-linecap:butt;stroke-linejoin:miter;stroke-miterlimit:10;stroke-dasharray:none;stroke-opacity:1"
           id="path112"
           inkscape:connector-curvature="0" /></g></g><g
       id="g114"><path
         d="M 453.36,708.69 V 893.52 H 425.4 V 708.69 Z m 13.98,170.85 -27.96,55.92 -27.96,-55.92 z"
         style="fill:url(#linearGradient130);fill-opacity:1;fill-rule:nonzero;stroke:none"
         id="path132"
         inkscape:connector-curvature="0" /></g><g
       id="g134"><g
         id="g136"
         clip-path="url(#clipPath140)"><path
           d="m 404.99,708.37 -4.75,2.49 -4.03,2.95 -3.75,3.1 -3.61,3.34 -3.47,3.56 -3.33,3.78 -3.19,3.97 -3.03,4.18 -2.88,4.37 -2.71,4.55 -2.56,4.7 -2.39,4.88 -2.22,5.02 -2.05,5.16 -1.88,5.3 -1.69,5.43 -1.51,5.53 -1.32,5.65 -1.13,5.75 -0.93,5.83 -0.74,5.91 -0.53,5.99 -0.32,6.04 -0.11,6.11 0.11,6.15 0.33,6.18 0.56,6.22 0.78,6.22 0.69,4.4 0.8,4.32 0.91,4.26 1,4.2 1.11,4.12 1.22,4.06 1.31,3.99 1.4,3.9 1.5,3.82 1.6,3.75 1.68,3.65 1.77,3.58 1.86,3.48 1.95,3.37 2.02,3.29 2.11,3.18 2.19,3.09 2.27,2.96 2.34,2.87 2.43,2.75 2.48,2.63 2.57,2.52 2.63,2.38 2.7,2.28 2.77,2.13 2.83,2.01 2.89,1.86 2.94,1.73 3.02,1.59 3.07,1.43 3.12,1.29 3.08,1.11 2.35,-6.56 -3.01,-1.08 0.15,0.06 -2.97,-1.22 0.15,0.07 -2.92,-1.37 0.15,0.07 -2.87,-1.51 0.14,0.08 -2.81,-1.65 0.12,0.07 -2.77,-1.78 0.13,0.08 -2.71,-1.92 0.12,0.09 -2.66,-2.05 0.11,0.09 -2.59,-2.18 0.1,0.09 -2.53,-2.3 0.1,0.09 -2.48,-2.42 0.1,0.1 -2.4,-2.55 0.08,0.09 -2.34,-2.65 0.08,0.1 -2.26,-2.78 0.07,0.09 -2.2,-2.87 0.07,0.09 -2.12,-2.98 0.06,0.09 -2.04,-3.09 0.06,0.1 -1.97,-3.19 0.05,0.08 -1.89,-3.29 0.05,0.1 -1.81,-3.38 0.05,0.1 -1.72,-3.48 0.04,0.09 -1.64,-3.57 0.04,0.1 -1.55,-3.65 0.03,0.09 -1.46,-3.73 0.04,0.09 -1.38,-3.81 0.04,0.08 -1.29,-3.89 0.03,0.09 -1.18,-3.96 0.02,0.09 -1.08,-4.04 0.02,0.1 -0.98,-4.11 0.02,0.09 -0.89,-4.17 0.02,0.08 -0.79,-4.23 0.02,0.1 -0.68,-4.3 0.02,0.11 -0.77,-6.11 0.02,0.12 -0.55,-6.09 0.01,0.13 -0.32,-6.06 v 0.12 l -0.11,-6.02 v 0.12 l 0.11,-5.98 v 0.12 l 0.31,-5.92 -0.01,0.12 0.52,-5.87 -0.01,0.13 0.72,-5.79 -0.02,0.12 0.91,-5.71 -0.02,0.12 1.1,-5.63 -0.02,0.13 1.3,-5.53 -0.04,0.12 1.48,-5.41 -0.03,0.12 1.65,-5.31 -0.04,0.13 1.83,-5.17 -0.05,0.12 2,-5.04 -0.05,0.12 2.17,-4.89 -0.06,0.12 2.33,-4.75 -0.06,0.13 2.48,-4.58 -0.07,0.12 2.64,-4.41 -0.09,0.13 2.8,-4.24 -0.08,0.12 2.93,-4.05 -0.1,0.14 3.08,-3.85 -0.11,0.13 3.22,-3.66 -0.12,0.13 3.35,-3.42 -0.14,0.12 3.48,-3.21 -0.14,0.13 3.6,-2.98 -0.16,0.12 3.73,-2.74 -0.45,0.28 4.53,-2.36 z m 2.89,14.02 14.48,-18.31 -23.33,-0.6 z"
           style="fill:#ff8000;fill-opacity:1;fill-rule:nonzero;stroke:none"
           id="path142"
           inkscape:connector-curvature="0" /></g></g><g
       id="g144"><g
         id="g146"
         clip-path="url(#clipPath150)"><path
           d="m 403.46,691.84 -17.28,0.79 -16.95,1.16 -16.64,1.46 -16.29,1.77 -15.95,2.05 -15.56,2.34 -15.17,2.6 -14.75,2.87 -14.32,3.13 -13.85,3.38 -6.77,1.77 -6.63,1.85 -6.51,1.89 -6.39,1.95 -6.25,2.01 -6.13,2.06 -5.99,2.12 -5.85,2.17 -5.72,2.23 -5.57,2.27 -5.44,2.33 -5.29,2.38 -5.13,2.42 -4.99,2.47 -4.84,2.52 -4.68,2.57 -4.52,2.61 -4.37,2.65 -4.2,2.71 -4.04,2.74 -3.87,2.79 -3.7,2.83 -3.53,2.87 -3.35,2.92 -3.17,2.95 -3,3 -2.81,3.04 -2.62,3.08 -2.43,3.12 -2.25,3.17 -2.05,3.2 -1.84,3.24 -1.64,3.27 -1.43,3.33 -1.211,3.35 -0.998,3.38 -0.777,3.42 -0.554,3.44 -0.314,3.48 -0.088,3.48 0.153,3.51 0.384,3.52 0.571,3.23 0.76,3.2 0.959,3.18 1.145,3.14 1.33,3.11 1.51,3.08 1.7,3.04 1.86,3 2.04,2.97 2.21,2.94 2.37,2.89 2.54,2.87 2.69,2.82 2.85,2.78 3.01,2.75 3.17,2.71 3.32,2.68 3.45,2.63 3.62,2.6 3.75,2.56 3.9,2.52 4.04,2.49 4.17,2.43 4.31,2.41 4.45,2.36 4.58,2.32 4.7,2.28 4.84,2.24 4.96,2.19 5.09,2.14 5.21,2.11 5.34,2.06 11,3.97 11.46,3.8 11.91,3.59 12.32,3.4 12.74,3.19 13.13,2.98 13.49,2.76 13.87,2.53 14.19,2.31 14.52,2.07 14.83,1.83 15.11,1.57 15.4,1.32 15.64,1.06 15.89,0.79 16.08,0.51 0.22,-6.96 -16.05,-0.51 0.07,0.01 -15.83,-0.79 h 0.06 l -15.58,-1.05 h 0.06 L 355.94,942.3 H 356 l -15.05,-1.56 h 0.06 l -14.76,-1.81 0.07,0.01 -14.46,-2.07 0.07,0.02 -14.12,-2.3 0.06,0.01 -13.79,-2.52 0.07,0.02 -13.42,-2.75 0.07,0.02 -13.05,-2.97 0.08,0.02 -12.66,-3.17 0.07,0.02 -12.24,-3.37 0.08,0.02 -11.82,-3.57 0.09,0.03 -11.38,-3.77 0.09,0.03 -10.92,-3.94 0.07,0.02 -5.28,-2.04 0.05,0.02 -5.16,-2.08 0.05,0.02 -5.04,-2.12 0.06,0.02 -4.92,-2.17 0.06,0.03 -4.78,-2.22 0.06,0.03 -4.65,-2.25 0.05,0.03 -4.52,-2.29 0.06,0.03 -4.38,-2.33 0.06,0.03 -4.25,-2.37 0.06,0.04 -4.11,-2.4 0.07,0.04 -3.97,-2.45 0.06,0.05 -3.82,-2.48 0.07,0.05 -3.68,-2.51 0.07,0.04 -3.54,-2.54 0.08,0.06 -3.39,-2.58 0.08,0.06 -3.24,-2.61 0.08,0.06 -3.09,-2.64 0.09,0.08 -2.93,-2.68 0.09,0.08 -2.77,-2.7 0.08,0.09 -2.61,-2.73 0.09,0.09 -2.45,-2.77 0.09,0.11 -2.28,-2.79 0.09,0.12 -2.13,-2.82 0.09,0.12 -1.95,-2.84 0.09,0.13 -1.78,-2.86 0.08,0.14 -1.61,-2.89 0.09,0.16 -1.44,-2.92 0.08,0.17 -1.25,-2.94 0.07,0.17 -1.08,-2.95 0.06,0.19 -0.9,-2.99 0.05,0.2 -0.71,-3 0.04,0.2 -0.53,-3.02 0.03,0.23 -0.36,-3.3 0.02,0.23 -0.14,-3.27 v 0.24 l 0.08,-3.25 -0.01,0.22 0.29,-3.24 -0.03,0.24 0.52,-3.22 -0.04,0.22 0.72,-3.2 -0.05,0.21 0.93,-3.17 -0.06,0.2 1.14,-3.16 -0.08,0.19 1.35,-3.13 -0.08,0.18 1.55,-3.11 -0.09,0.17 1.76,-3.08 -0.09,0.15 1.95,-3.05 -0.1,0.14 2.15,-3.03 -0.09,0.12 2.34,-3 -0.09,0.12 2.53,-2.97 -0.1,0.1 2.72,-2.94 -0.1,0.1 2.9,-2.9 -0.09,0.09 3.09,-2.87 -0.08,0.07 3.26,-2.84 -0.09,0.07 3.45,-2.8 -0.09,0.06 3.62,-2.76 -0.09,0.06 3.8,-2.73 -0.08,0.05 3.96,-2.69 -0.07,0.05 4.13,-2.66 -0.08,0.05 4.3,-2.61 -0.07,0.04 4.46,-2.57 -0.07,0.03 4.61,-2.53 -0.07,0.04 4.78,-2.49 -0.06,0.03 4.93,-2.44 -0.06,0.03 5.07,-2.39 -0.05,0.02 5.23,-2.35 -0.06,0.02 5.38,-2.3 -0.05,0.02 5.52,-2.25 -0.05,0.02 5.66,-2.2 -0.06,0.02 5.81,-2.15 -0.05,0.01 5.94,-2.1 -0.05,0.02 6.08,-2.05 -0.05,0.02 6.21,-2 -0.05,0.02 6.34,-1.94 -0.05,0.02 6.48,-1.89 -0.04,0.02 6.58,-1.83 -0.05,0.01 6.72,-1.76 -0.06,0.01 13.78,-3.36 -0.08,0.02 14.24,-3.11 -0.08,0.01 14.67,-2.85 -0.07,0.02 15.1,-2.6 -0.08,0.01 15.49,-2.32 -0.07,0.01 15.87,-2.04 -0.07,0.01 16.23,-1.77 -0.07,0.01 16.57,-1.45 h -0.07 l 16.87,-1.15 h -0.07 l 17.24,-0.79 z m -2.97,14.02 20.52,-11.12 -21.21,-9.75 z"
           style="fill:#ff8000;fill-opacity:1;fill-rule:nonzero;stroke:none"
           id="path152"
           inkscape:connector-curvature="0" /></g></g><g
       id="g154"><g
         id="g156"
         clip-path="url(#clipPath160)"><path
           d="m 473.77,708.37 4.76,2.49 4.02,2.95 3.75,3.1 3.62,3.34 3.47,3.56 3.33,3.78 3.19,3.97 3.02,4.18 2.88,4.37 2.72,4.55 2.55,4.7 2.4,4.88 2.22,5.02 2.05,5.16 1.88,5.3 1.68,5.43 1.51,5.53 1.33,5.65 1.13,5.75 0.93,5.83 0.74,5.91 0.52,5.99 0.33,6.04 0.1,6.11 -0.1,6.15 -0.33,6.18 -0.56,6.22 -0.78,6.22 -0.69,4.4 -0.81,4.32 -0.9,4.26 -1,4.2 -1.12,4.12 -1.21,4.06 -1.31,3.99 -1.41,3.9 -1.5,3.82 -1.59,3.75 -1.68,3.65 -1.77,3.58 -1.87,3.48 -1.94,3.37 -2.02,3.29 -2.12,3.18 -2.19,3.09 -2.27,2.96 -2.34,2.87 -2.42,2.75 -2.49,2.63 -2.57,2.52 -2.63,2.38 -2.7,2.27 -2.76,2.14 -2.84,2.01 -2.89,1.86 -2.94,1.73 -3.02,1.59 -3.07,1.43 -3.12,1.29 -3.08,1.11 -2.35,-6.56 3.01,-1.08 -0.15,0.06 2.97,-1.22 -0.15,0.07 2.92,-1.37 -0.15,0.07 2.87,-1.51 -0.14,0.08 2.81,-1.65 -0.12,0.07 2.77,-1.78 -0.13,0.08 2.72,-1.92 -0.12,0.09 2.65,-2.05 -0.11,0.09 2.59,-2.18 -0.1,0.08 2.54,-2.29 -0.1,0.09 2.46,-2.42 -0.08,0.09 2.4,-2.54 -0.08,0.1 2.33,-2.66 -0.08,0.09 2.27,-2.77 -0.07,0.09 2.2,-2.87 -0.07,0.09 2.12,-2.98 -0.07,0.09 2.05,-3.09 -0.06,0.1 1.96,-3.19 -0.05,0.08 1.89,-3.28 -0.05,0.09 1.82,-3.38 -0.06,0.1 1.73,-3.48 -0.04,0.09 1.64,-3.57 -0.04,0.1 1.55,-3.65 -0.04,0.09 1.47,-3.73 -0.04,0.09 1.37,-3.81 -0.03,0.08 1.28,-3.89 -0.02,0.09 1.18,-3.96 -0.03,0.09 1.09,-4.04 -0.02,0.1 0.98,-4.11 -0.02,0.09 0.89,-4.17 -0.02,0.08 0.79,-4.23 -0.02,0.1 0.67,-4.3 -0.01,0.11 0.76,-6.11 -0.01,0.12 0.55,-6.09 -0.01,0.13 0.32,-6.06 v 0.12 l 0.1,-6.02 v 0.12 l -0.1,-5.98 v 0.12 l -0.31,-5.92 0.01,0.12 -0.52,-5.87 0.01,0.13 -0.72,-5.79 0.02,0.12 -0.92,-5.71 0.02,0.12 -1.1,-5.63 0.03,0.13 -1.3,-5.53 0.03,0.12 -1.47,-5.41 0.03,0.12 -1.65,-5.31 0.04,0.13 -1.83,-5.17 0.05,0.12 -2,-5.04 0.05,0.12 -2.17,-4.89 0.06,0.12 -2.33,-4.75 0.06,0.13 -2.48,-4.58 0.07,0.12 -2.64,-4.41 0.08,0.13 -2.79,-4.24 0.08,0.12 -2.93,-4.05 0.1,0.14 -3.08,-3.85 0.1,0.13 -3.21,-3.66 0.12,0.13 -3.35,-3.42 0.13,0.12 -3.48,-3.21 0.14,0.13 -3.6,-2.98 0.16,0.12 -3.72,-2.74 0.44,0.28 -4.52,-2.36 z m -2.88,14.02 -14.48,-18.31 23.33,-0.6 z"
           style="fill:#ff8000;fill-opacity:1;fill-rule:nonzero;stroke:none"
           id="path162"
           inkscape:connector-curvature="0" /></g></g><g
       id="g164"><g
         id="g166"
         clip-path="url(#clipPath170)"><path
           d="m 475.31,691.84 17.27,0.79 16.96,1.16 16.63,1.46 16.29,1.77 15.95,2.05 15.56,2.34 15.17,2.6 14.75,2.87 14.32,3.13 13.85,3.38 6.77,1.77 6.63,1.85 6.51,1.89 6.39,1.95 6.25,2.01 6.13,2.06 5.99,2.12 5.85,2.17 5.72,2.23 5.58,2.27 5.43,2.33 5.29,2.38 5.14,2.42 4.99,2.47 4.83,2.52 4.69,2.57 4.52,2.61 4.36,2.65 4.21,2.71 4.04,2.74 3.86,2.79 3.71,2.83 3.53,2.87 3.34,2.92 3.18,2.95 3,3 2.81,3.04 2.62,3.08 2.43,3.13 2.24,3.16 2.05,3.2 1.84,3.24 1.65,3.27 1.43,3.33 1.21,3.35 1,3.38 0.77,3.42 0.56,3.44 0.31,3.48 0.09,3.48 -0.15,3.51 -0.39,3.52 -0.57,3.23 -0.76,3.2 -0.96,3.18 -1.14,3.14 -1.33,3.11 -1.51,3.08 -1.7,3.04 -1.86,3 -2.04,2.97 -2.21,2.94 -2.37,2.89 -2.54,2.87 -2.7,2.82 -2.85,2.78 -3.01,2.75 -3.16,2.71 -3.32,2.68 -3.46,2.63 -3.61,2.6 -3.75,2.56 -3.9,2.52 -4.04,2.49 -4.17,2.43 -4.31,2.41 -4.45,2.36 -4.58,2.32 -4.71,2.28 -4.84,2.23 -4.95,2.19 -5.09,2.15 -5.21,2.11 -5.34,2.06 -11,3.97 -11.47,3.8 -11.9,3.59 -12.33,3.4 -12.73,3.19 -13.13,2.98 -13.5,2.76 -13.86,2.53 -14.2,2.31 -14.51,2.06 -14.83,1.84 -15.12,1.57 -15.39,1.32 -15.65,1.06 -15.89,0.79 -16.08,0.51 -0.22,-6.96 16.05,-0.51 -0.07,0.01 15.83,-0.79 h -0.06 l 15.59,-1.05 h -0.06 l 15.32,-1.31 h -0.06 l 15.06,-1.56 h -0.07 l 14.76,-1.82 -0.06,0.01 14.45,-2.06 -0.07,0.01 14.13,-2.29 -0.07,0.01 13.79,-2.52 -0.07,0.02 13.43,-2.75 -0.07,0.02 13.05,-2.97 -0.08,0.02 12.66,-3.17 -0.08,0.02 12.25,-3.37 -0.08,0.02 11.82,-3.57 -0.09,0.03 11.38,-3.77 -0.09,0.03 10.92,-3.94 -0.07,0.02 5.28,-2.04 -0.05,0.02 5.15,-2.08 -0.05,0.02 5.04,-2.13 -0.05,0.02 4.9,-2.17 -0.05,0.03 4.79,-2.21 -0.06,0.03 4.65,-2.25 -0.06,0.03 4.52,-2.3 -0.05,0.03 4.39,-2.32 -0.07,0.03 4.24,-2.37 -0.05,0.04 4.11,-2.4 -0.07,0.04 3.97,-2.45 -0.07,0.05 3.83,-2.48 -0.07,0.05 3.68,-2.51 -0.07,0.05 3.53,-2.55 -0.07,0.06 3.39,-2.58 -0.08,0.06 3.24,-2.61 -0.08,0.06 3.08,-2.64 -0.08,0.08 2.92,-2.68 -0.08,0.08 2.77,-2.7 -0.09,0.09 2.61,-2.73 -0.08,0.09 2.45,-2.77 -0.09,0.11 2.28,-2.79 -0.09,0.12 2.12,-2.82 -0.08,0.12 1.95,-2.84 -0.09,0.13 1.78,-2.86 -0.09,0.14 1.62,-2.89 -0.09,0.16 1.43,-2.92 -0.07,0.17 1.25,-2.94 -0.07,0.17 1.08,-2.95 -0.06,0.19 0.9,-2.99 -0.06,0.2 0.72,-3 -0.04,0.2 0.53,-3.02 -0.03,0.23 0.36,-3.3 -0.02,0.23 0.14,-3.27 v 0.24 l -0.08,-3.25 0.01,0.22 -0.29,-3.24 0.03,0.24 -0.52,-3.22 0.04,0.22 -0.73,-3.2 0.06,0.21 -0.94,-3.17 0.07,0.2 -1.14,-3.16 0.07,0.19 -1.35,-3.13 0.09,0.18 -1.56,-3.1 0.08,0.15 -1.74,-3.08 0.09,0.16 -1.95,-3.05 0.08,0.13 -2.14,-3.03 0.1,0.13 -2.34,-3 0.09,0.12 -2.53,-2.97 0.1,0.1 -2.72,-2.94 0.1,0.1 -2.91,-2.9 0.1,0.09 -3.09,-2.87 0.08,0.07 -3.26,-2.84 0.08,0.07 -3.44,-2.8 0.09,0.07 -3.63,-2.77 0.08,0.06 -3.78,-2.73 0.07,0.05 -3.96,-2.69 0.08,0.05 -4.13,-2.66 0.07,0.05 -4.29,-2.61 0.07,0.04 -4.46,-2.57 0.07,0.03 -4.62,-2.53 0.07,0.03 -4.77,-2.48 0.06,0.03 -4.93,-2.44 0.06,0.03 -5.08,-2.39 0.06,0.02 -5.24,-2.35 0.06,0.02 -5.37,-2.3 0.05,0.02 -5.52,-2.25 0.05,0.02 -5.67,-2.2 0.05,0.02 -5.79,-2.16 0.05,0.02 -5.95,-2.1 0.05,0.02 -6.08,-2.05 0.05,0.02 -6.21,-2 0.05,0.02 -6.34,-1.94 0.04,0.02 -6.46,-1.89 0.04,0.02 -6.59,-1.83 0.05,0.01 -6.72,-1.76 0.06,0.01 -13.77,-3.36 0.08,0.02 -14.25,-3.11 0.08,0.01 -14.67,-2.85 0.07,0.02 -15.09,-2.6 0.07,0.01 -15.49,-2.32 0.07,0.01 -15.87,-2.04 0.07,0.01 -16.22,-1.77 0.07,0.01 -16.57,-1.45 h 0.07 l -16.89,-1.15 h 0.08 l -17.23,-0.79 z m 2.97,14.02 -20.53,-11.12 21.22,-9.75 z"
           style="fill:#ff8000;fill-opacity:1;fill-rule:nonzero;stroke:none"
           id="path172"
           inkscape:connector-curvature="0" /></g></g><g
       id="g174"><g
         id="g176"
         clip-path="url(#clipPath180)"><text
           transform="matrix(1,0,0,-1,63.696,942.94)"
           style="font-variant:normal;font-weight:normal;font-size:18px;font-family:Arial;-inkscape-font-specification:'Arial Unicode MS';writing-mode:lr-tb;fill:#000000;fill-opacity:1;fill-rule:nonzero;stroke:none"
           id="text184"><tspan
             x="0 5.994 16.002001"
             y="0"
             sodipodi:role="line"
             id="tspan182">(a)</tspan></text>
</g></g><path
       d="M 29.88,950.28 V 693.81 h -3 v 256.47 z m -9,-1.5 7.5,15 7.5,-15 z m 15,-253.47 -7.5,-15 -7.5,15 z"
       style="fill:#000000;fill-opacity:1;fill-rule:nonzero;stroke:none"
       id="path186"
       inkscape:connector-curvature="0" /><g
       id="g188"><g
         id="g190"
         clip-path="url(#clipPath194)"><path
           d="M 14.16,790.08 H 43.2 v 63.96 H 14.16 Z"
           style="fill:#ffffff;fill-opacity:1;fill-rule:evenodd;stroke:none"
           id="path196"
           inkscape:connector-curvature="0" /></g></g><g
       id="g198"><g
         id="g200"
         clip-path="url(#clipPath204)"><text
           transform="matrix(-4.4e-8,1,1,4.4e-8,35.064,797.54)"
           style="font-variant:normal;font-weight:normal;font-size:18px;font-family:Arial;-inkscape-font-specification:'Arial Unicode MS';writing-mode:lr-tb;fill:#000000;fill-opacity:1;fill-rule:nonzero;stroke:none"
           id="text208"><tspan
             x="0 10.008 19.926001 24.93 33.93"
             y="0"
             sodipodi:role="line"
             id="tspan206">10 km</tspan></text>
</g></g><path
       d="M 56.7,368.46 H 822.06 V 651.9 H 56.7 Z"
       style="fill:#ffffff;fill-opacity:1;fill-rule:evenodd;stroke:none"
       id="path210"
       inkscape:connector-curvature="0" /><path
       d="M 56.7,368.46 H 822.06 V 651.9 H 56.7 Z"
       style="fill:none;stroke:#000000;stroke-width:3;stroke-linecap:butt;stroke-linejoin:miter;stroke-miterlimit:10;stroke-dasharray:none;stroke-opacity:1"
       id="path212"
       inkscape:connector-curvature="0" /><path
       d="M 311.82,368.46 H 566.94 V 651.9 H 311.82 Z"
       style="fill:#ffffff;fill-opacity:1;fill-rule:evenodd;stroke:none"
       id="path214"
       inkscape:connector-curvature="0" /><path
       d="M 311.82,368.46 H 566.94 V 651.9 H 311.82 Z"
       style="fill:none;stroke:#000000;stroke-width:3;stroke-linecap:butt;stroke-linejoin:miter;stroke-miterlimit:10;stroke-dasharray:none;stroke-opacity:1"
       id="path216"
       inkscape:connector-curvature="0" /><path
       d="m 411.06,396.78 h 56.69"
       style="fill:none;stroke:#000000;stroke-width:3;stroke-linecap:butt;stroke-linejoin:miter;stroke-miterlimit:10;stroke-dasharray:none;stroke-opacity:1"
       id="path218"
       inkscape:connector-curvature="0" /><path
       d="m 411.06,623.7 c 0.13,7.82 12.94,14.1 28.61,14.04 15.58,-0.06 28.15,-6.38 28.15,-14.16"
       style="fill:none;stroke:#000000;stroke-width:3;stroke-linecap:butt;stroke-linejoin:miter;stroke-miterlimit:10;stroke-dasharray:none;stroke-opacity:1"
       id="path220"
       inkscape:connector-curvature="0" /><g
       id="g222"><g
         id="g224"
         clip-path="url(#clipPath228)"><path
           d="m 410.94,396.78 c -7.82,0.13 -14.1,12.94 -14.04,28.61 0.06,15.58 6.38,28.15 14.16,28.15"
           style="fill:none;stroke:#000000;stroke-width:3;stroke-linecap:butt;stroke-linejoin:miter;stroke-miterlimit:10;stroke-dasharray:none;stroke-opacity:1"
           id="path230"
           inkscape:connector-curvature="0" /></g></g><g
       id="g232"><g
         id="g234"
         clip-path="url(#clipPath238)"><path
           d="m 410.94,453.54 c -7.82,0.13 -14.1,12.91 -14.04,28.55 0.06,15.55 6.38,28.09 14.16,28.09"
           style="fill:none;stroke:#000000;stroke-width:3;stroke-linecap:butt;stroke-linejoin:miter;stroke-miterlimit:10;stroke-dasharray:none;stroke-opacity:1"
           id="path240"
           inkscape:connector-curvature="0" /></g></g><g
       id="g242"><g
         id="g244"
         clip-path="url(#clipPath248)"><path
           d="m 410.94,510.18 c -7.82,0.13 -14.1,12.94 -14.04,28.61 0.06,15.58 6.38,28.15 14.16,28.15"
           style="fill:none;stroke:#000000;stroke-width:3;stroke-linecap:butt;stroke-linejoin:miter;stroke-miterlimit:10;stroke-dasharray:none;stroke-opacity:1"
           id="path250"
           inkscape:connector-curvature="0" /></g></g><g
       id="g252"><g
         id="g254"
         clip-path="url(#clipPath258)"><path
           d="m 410.94,566.94 c -7.82,0.13 -14.1,12.91 -14.04,28.55 0.06,15.55 6.38,28.09 14.16,28.09"
           style="fill:none;stroke:#000000;stroke-width:3;stroke-linecap:butt;stroke-linejoin:miter;stroke-miterlimit:10;stroke-dasharray:none;stroke-opacity:1"
           id="path260"
           inkscape:connector-curvature="0" /></g></g><g
       id="g262"><g
         id="g264"
         clip-path="url(#clipPath268)"><path
           d="m 467.94,453.54 c 7.82,-0.13 14.1,-12.94 14.04,-28.61 -0.06,-15.58 -6.38,-28.15 -14.16,-28.15"
           style="fill:none;stroke:#000000;stroke-width:3;stroke-linecap:butt;stroke-linejoin:miter;stroke-miterlimit:10;stroke-dasharray:none;stroke-opacity:1"
           id="path270"
           inkscape:connector-curvature="0" /></g></g><g
       id="g272"><g
         id="g274"
         clip-path="url(#clipPath278)"><path
           d="m 467.94,510.18 c 7.82,-0.13 14.1,-12.91 14.04,-28.55 -0.06,-15.55 -6.38,-28.09 -14.16,-28.09"
           style="fill:none;stroke:#000000;stroke-width:3;stroke-linecap:butt;stroke-linejoin:miter;stroke-miterlimit:10;stroke-dasharray:none;stroke-opacity:1"
           id="path280"
           inkscape:connector-curvature="0" /></g></g><g
       id="g282"><g
         id="g284"
         clip-path="url(#clipPath288)"><path
           d="m 467.94,566.94 c 7.82,-0.13 14.1,-12.94 14.04,-28.61 -0.06,-15.58 -6.38,-28.15 -14.16,-28.15"
           style="fill:none;stroke:#000000;stroke-width:3;stroke-linecap:butt;stroke-linejoin:miter;stroke-miterlimit:10;stroke-dasharray:none;stroke-opacity:1"
           id="path290"
           inkscape:connector-curvature="0" /></g></g><g
       id="g292"><g
         id="g294"
         clip-path="url(#clipPath298)"><path
           d="m 467.94,624.06 c 7.82,-0.13 14.1,-12.94 14.04,-28.61 -0.06,-15.58 -6.38,-28.15 -14.16,-28.15"
           style="fill:none;stroke:#000000;stroke-width:3;stroke-linecap:butt;stroke-linejoin:miter;stroke-miterlimit:10;stroke-dasharray:none;stroke-opacity:1"
           id="path300"
           inkscape:connector-curvature="0" /></g></g><g
       id="g302"><path
         d="M 453.36,396.81 V 581.64 H 425.4 V 396.81 Z m 13.98,170.85 -27.96,55.92 -27.96,-55.92 z"
         style="fill:url(#linearGradient318);fill-opacity:1;fill-rule:nonzero;stroke:none"
         id="path320"
         inkscape:connector-curvature="0" /></g><g
       id="g322"><g
         id="g324"
         clip-path="url(#clipPath328)"><text
           transform="matrix(1,0,0,-1,63.696,631.08)"
           style="font-variant:normal;font-weight:normal;font-size:18px;font-family:Arial;-inkscape-font-specification:'Arial Unicode MS';writing-mode:lr-tb;fill:#000000;fill-opacity:1;fill-rule:nonzero;stroke:none"
           id="text332"><tspan
             x="0 5.994 16.002001"
             y="0"
             sodipodi:role="line"
             id="tspan330">(b)</tspan></text>
</g></g><path
       d="M 29.88,638.4 V 381.93 h -3 V 638.4 Z m -9,-1.5 7.5,15 7.5,-15 z m 15,-253.46 -7.5,-15 -7.5,15 z"
       style="fill:#000000;fill-opacity:1;fill-rule:nonzero;stroke:none"
       id="path334"
       inkscape:connector-curvature="0" /><g
       id="g336"><g
         id="g338"
         clip-path="url(#clipPath342)"><path
           d="M 14.16,478.32 H 43.2 v 63.96 H 14.16 Z"
           style="fill:#ffffff;fill-opacity:1;fill-rule:evenodd;stroke:none"
           id="path344"
           inkscape:connector-curvature="0" /></g></g><g
       id="g346"><g
         id="g348"
         clip-path="url(#clipPath352)"><text
           transform="matrix(-4.4e-8,1,1,4.4e-8,35.064,485.71)"
           style="font-variant:normal;font-weight:normal;font-size:18px;font-family:Arial;-inkscape-font-specification:'Arial Unicode MS';writing-mode:lr-tb;fill:#000000;fill-opacity:1;fill-rule:nonzero;stroke:none"
           id="text356"><tspan
             x="0 10.008 19.926001 24.93 33.93"
             y="0"
             sodipodi:role="line"
             id="tspan354">10 km</tspan></text>
</g></g><path
       d="m 311.76,623.64 h 255.12 v 28.32 H 311.76 Z"
       style="fill:#00ff00;fill-opacity:1;fill-rule:evenodd;stroke:none"
       id="path358"
       inkscape:connector-curvature="0" /><path
       d="m 311.76,368.52 h 255.12 v 28.32 H 311.76 Z"
       style="fill:#00ffff;fill-opacity:1;fill-rule:evenodd;stroke:none"
       id="path360"
       inkscape:connector-curvature="0" /><path
       d="M 311.82,368.94 H 566.94 V 652.38 H 311.82 Z"
       style="fill:none;stroke:#000000;stroke-width:3;stroke-linecap:butt;stroke-linejoin:miter;stroke-miterlimit:10;stroke-dasharray:none;stroke-opacity:1"
       id="path362"
       inkscape:connector-curvature="0" /><path
       d="M 56.7,56.7 H 822.06 V 340.14 H 56.7 Z"
       style="fill:#ffffff;fill-opacity:1;fill-rule:evenodd;stroke:none"
       id="path364"
       inkscape:connector-curvature="0" /><path
       d="M 56.7,56.7 H 822.06 V 340.14 H 56.7 Z"
       style="fill:none;stroke:#000000;stroke-width:3;stroke-linecap:butt;stroke-linejoin:miter;stroke-miterlimit:10;stroke-dasharray:none;stroke-opacity:1"
       id="path366"
       inkscape:connector-curvature="0" /><path
       d="M 311.94,56.7 H 567.06 V 340.14 H 311.94 Z"
       style="fill:#ffffff;fill-opacity:1;fill-rule:evenodd;stroke:none"
       id="path368"
       inkscape:connector-curvature="0" /><path
       d="M 311.94,56.7 H 567.06 V 340.14 H 311.94 Z"
       style="fill:none;stroke:#000000;stroke-width:3;stroke-linecap:butt;stroke-linejoin:miter;stroke-miterlimit:10;stroke-dasharray:none;stroke-opacity:1"
       id="path370"
       inkscape:connector-curvature="0" /><g
       id="g372"><g
         id="g374"
         clip-path="url(#clipPath378)"><text
           transform="matrix(1,0,0,-1,63.696,320.09)"
           style="font-variant:normal;font-weight:normal;font-size:18px;font-family:Arial;-inkscape-font-specification:'Arial Unicode MS';writing-mode:lr-tb;fill:#000000;fill-opacity:1;fill-rule:nonzero;stroke:none"
           id="text382"><tspan
             x="0 6 15.006"
             y="0"
             sodipodi:role="line"
             id="tspan380">(c)</tspan></text>
</g></g><path
       d="M 29.88,327.48 V 71.015 h -3 V 327.48 Z m -9,-1.5 7.5,15 7.5,-15 z m 15,-253.465 -7.5,-15 -7.5,15 z"
       style="fill:#000000;fill-opacity:1;fill-rule:nonzero;stroke:none"
       id="path384"
       inkscape:connector-curvature="0" /><g
       id="g386"><g
         id="g388"
         clip-path="url(#clipPath392)"><path
           d="M 14.16,167.28 H 43.2 v 64.08 H 14.16 Z"
           style="fill:#ffffff;fill-opacity:1;fill-rule:evenodd;stroke:none"
           id="path394"
           inkscape:connector-curvature="0" /></g></g><g
       id="g396"><g
         id="g398"
         clip-path="url(#clipPath402)"><text
           transform="matrix(-4.4e-8,1,1,4.4e-8,35.064,174.7)"
           style="font-variant:normal;font-weight:normal;font-size:18px;font-family:Arial;-inkscape-font-specification:'Arial Unicode MS';writing-mode:lr-tb;fill:#000000;fill-opacity:1;fill-rule:nonzero;stroke:none"
           id="text406"><tspan
             x="0 10.008 19.926001 24.93 33.93"
             y="0"
             sodipodi:role="line"
             id="tspan404">10 km</tspan></text>
</g></g><path
       d="M 311.76,311.88 H 566.88 V 340.2 H 311.76 Z"
       style="fill:#00ff00;fill-opacity:1;fill-rule:evenodd;stroke:none"
       id="path408"
       inkscape:connector-curvature="0" /><path
       d="M 311.76,56.76 H 566.88 V 85.08 H 311.76 Z"
       style="fill:#00ffff;fill-opacity:1;fill-rule:evenodd;stroke:none"
       id="path410"
       inkscape:connector-curvature="0" /><path
       d="M 311.82,56.7 H 566.94 V 340.14 H 311.82 Z"
       style="fill:none;stroke:#000000;stroke-width:3;stroke-linecap:butt;stroke-linejoin:miter;stroke-miterlimit:10;stroke-dasharray:none;stroke-opacity:1"
       id="path412"
       inkscape:connector-curvature="0" /><g
       id="g414"><g
         id="g416"
         clip-path="url(#clipPath420)"><path
           d="m 404.99,84.733 -4.75,2.485 -4.03,2.954 -3.75,3.101 -3.61,3.336 -3.47,3.561 -3.33,3.78 -3.19,3.97 -3.03,4.18 -2.88,4.37 -2.71,4.55 -2.56,4.7 -2.39,4.88 -2.22,5.02 -2.05,5.16 -1.88,5.3 -1.69,5.43 -1.51,5.53 -1.32,5.65 -1.13,5.75 -0.93,5.83 -0.74,5.91 -0.53,5.99 -0.32,6.04 -0.11,6.11 0.11,6.15 0.33,6.18 0.56,6.22 0.78,6.22 0.69,4.4 0.8,4.32 0.91,4.26 1,4.2 1.11,4.12 1.22,4.06 1.31,3.99 1.4,3.9 1.5,3.82 1.6,3.75 1.68,3.65 1.77,3.58 1.86,3.48 1.95,3.37 2.02,3.29 2.11,3.18 2.19,3.09 2.27,2.96 2.34,2.87 2.43,2.75 2.48,2.63 2.57,2.52 2.63,2.38 2.7,2.28 2.77,2.13 2.83,2.01 2.89,1.86 2.94,1.73 3.02,1.59 3.07,1.43 3.12,1.29 3.08,1.1 2.35,-6.55 -3.01,-1.08 0.15,0.06 -2.97,-1.22 0.15,0.07 -2.92,-1.37 0.15,0.07 -2.87,-1.51 0.14,0.08 -2.81,-1.65 0.12,0.07 -2.77,-1.78 0.13,0.08 -2.71,-1.92 0.12,0.09 -2.66,-2.05 0.11,0.09 -2.59,-2.18 0.1,0.09 -2.53,-2.3 0.1,0.09 -2.48,-2.42 0.1,0.1 -2.4,-2.55 0.08,0.09 -2.34,-2.65 0.08,0.1 -2.26,-2.78 0.07,0.09 -2.2,-2.87 0.07,0.09 -2.12,-2.98 0.06,0.09 -2.04,-3.09 0.06,0.1 -1.97,-3.19 0.05,0.08 -1.89,-3.29 0.05,0.1 -1.81,-3.38 0.05,0.1 -1.72,-3.48 0.04,0.09 -1.64,-3.57 0.04,0.1 -1.55,-3.65 0.03,0.09 -1.46,-3.73 0.04,0.09 -1.38,-3.82 0.04,0.09 -1.29,-3.89 0.03,0.09 -1.18,-3.96 0.02,0.09 -1.08,-4.04 0.02,0.1 -0.98,-4.11 0.02,0.09 -0.89,-4.17 0.02,0.08 -0.79,-4.23 0.02,0.1 -0.68,-4.3 0.02,0.11 -0.77,-6.11 0.02,0.12 -0.55,-6.09 0.01,0.13 -0.32,-6.06 v 0.12 l -0.11,-6.02 v 0.12 l 0.11,-5.98 v 0.12 l 0.31,-5.92 -0.01,0.12 0.52,-5.87 -0.01,0.13 0.72,-5.79 -0.02,0.12 0.91,-5.71 -0.02,0.12 1.1,-5.63 -0.02,0.13 1.3,-5.53 -0.04,0.12 1.48,-5.41 -0.03,0.12 1.65,-5.31 -0.04,0.13 1.83,-5.17 -0.05,0.12 2,-5.04 -0.05,0.12 2.17,-4.89 -0.06,0.12 2.33,-4.75 -0.06,0.13 2.48,-4.59 -0.07,0.13 2.64,-4.42 -0.09,0.14 2.8,-4.24 -0.08,0.12 2.93,-4.05 -0.1,0.14 3.08,-3.85 -0.11,0.13 3.22,-3.66 -0.12,0.13 3.35,-3.42 -0.14,0.12 3.48,-3.207 -0.14,0.123 3.6,-2.977 -0.16,0.123 3.73,-2.737 -0.45,0.279 4.53,-2.362 z m 2.89,14.015 14.48,-18.311 -23.33,-0.598 z"
           style="fill:#ff8000;fill-opacity:1;fill-rule:nonzero;stroke:none"
           id="path422"
           inkscape:connector-curvature="0" /></g></g><g
       id="g424"><g
         id="g426"
         clip-path="url(#clipPath430)"><path
           d="m 403.46,68.195 -17.28,0.795 -16.95,1.16 -16.64,1.461 -16.29,1.77 -15.95,2.049 -15.56,2.336 -15.17,2.608 -14.75,2.865 -14.32,3.13 -13.85,3.377 -6.77,1.777 -6.63,1.842 -6.51,1.895 -6.39,1.949 -6.25,2.01 -6.13,2.061 -5.99,2.12 -5.85,2.17 -5.72,2.23 -5.57,2.27 -5.44,2.33 -5.29,2.38 -5.13,2.42 -4.99,2.47 -4.84,2.52 -4.68,2.57 -4.52,2.61 -4.37,2.65 -4.2,2.71 -4.04,2.74 -3.87,2.79 -3.7,2.83 -3.53,2.87 -3.35,2.92 -3.17,2.95 -3,3 -2.81,3.04 -2.62,3.08 -2.43,3.12 -2.25,3.17 -2.05,3.2 -1.84,3.24 -1.64,3.27 -1.43,3.33 -1.211,3.35 -0.998,3.38 -0.777,3.42 -0.554,3.44 -0.314,3.48 -0.088,3.48 0.153,3.51 0.384,3.52 0.571,3.23 0.76,3.2 0.959,3.18 1.145,3.14 1.33,3.11 1.51,3.08 1.7,3.04 1.86,3 2.04,2.97 2.21,2.94 2.37,2.89 2.54,2.87 2.69,2.82 2.85,2.78 3.01,2.75 3.17,2.71 3.32,2.68 3.45,2.63 3.62,2.6 3.75,2.56 3.9,2.52 4.04,2.49 4.17,2.43 4.31,2.41 4.45,2.36 4.58,2.32 4.7,2.28 4.84,2.24 4.96,2.19 5.09,2.14 5.21,2.11 5.34,2.06 11,3.97 11.46,3.8 11.91,3.59 12.32,3.4 12.74,3.19 13.13,2.98 13.49,2.76 13.87,2.53 14.19,2.31 14.52,2.07 14.83,1.83 15.11,1.57 15.4,1.32 15.64,1.06 15.89,0.79 16.08,0.51 0.22,-6.96 -16.05,-0.51 0.07,0.01 -15.83,-0.79 h 0.06 l -15.58,-1.05 h 0.06 l -15.33,-1.31 H 356 l -15.05,-1.56 h 0.06 l -14.76,-1.81 0.07,0.01 -14.46,-2.07 0.07,0.01 -14.12,-2.29 0.06,0.01 -13.79,-2.52 0.07,0.02 -13.42,-2.75 0.07,0.02 -13.05,-2.97 0.08,0.02 -12.66,-3.17 0.07,0.02 -12.24,-3.38 0.08,0.03 -11.82,-3.57 0.09,0.03 -11.38,-3.77 0.09,0.03 -10.92,-3.94 0.07,0.02 -5.28,-2.04 0.05,0.02 -5.16,-2.08 0.05,0.02 -5.04,-2.12 0.06,0.02 -4.92,-2.17 0.06,0.03 -4.78,-2.22 0.06,0.03 -4.65,-2.25 0.05,0.03 -4.52,-2.29 0.06,0.03 -4.38,-2.33 0.06,0.03 -4.25,-2.37 0.06,0.04 -4.11,-2.4 0.07,0.04 -3.97,-2.45 0.06,0.05 -3.82,-2.48 0.07,0.05 -3.68,-2.51 0.07,0.04 -3.54,-2.54 0.08,0.06 -3.39,-2.58 0.08,0.06 -3.24,-2.61 0.08,0.06 -3.09,-2.64 0.09,0.08 -2.93,-2.68 0.09,0.08 -2.77,-2.7 0.08,0.08 -2.61,-2.73 0.09,0.1 -2.45,-2.77 0.09,0.11 -2.28,-2.79 0.09,0.12 -2.13,-2.82 0.09,0.12 -1.95,-2.84 0.09,0.13 -1.78,-2.86 0.08,0.14 -1.61,-2.89 0.09,0.16 -1.44,-2.92 0.08,0.17 -1.25,-2.94 0.07,0.17 -1.08,-2.95 0.06,0.19 -0.9,-2.99 0.05,0.2 -0.71,-3 0.04,0.2 -0.53,-3.02 0.03,0.23 -0.36,-3.3 0.02,0.23 -0.14,-3.27 v 0.24 l 0.08,-3.25 -0.01,0.22 0.29,-3.24 -0.03,0.24 0.52,-3.22 -0.04,0.22 0.72,-3.2 -0.05,0.21 0.93,-3.17 -0.06,0.2 1.14,-3.16 -0.08,0.19 1.35,-3.13 -0.08,0.18 1.55,-3.11 -0.09,0.17 1.76,-3.08 -0.09,0.15 1.95,-3.05 -0.1,0.14 2.15,-3.03 -0.09,0.12 2.34,-3 -0.09,0.12 2.53,-2.97 -0.1,0.1 2.72,-2.94 -0.1,0.1 2.9,-2.9 -0.09,0.09 3.09,-2.87 -0.08,0.07 3.26,-2.84 -0.09,0.07 3.45,-2.8 -0.09,0.06 3.62,-2.76 -0.09,0.06 3.8,-2.73 -0.08,0.05 3.96,-2.69 -0.07,0.05 4.13,-2.66 -0.08,0.05 4.3,-2.61 -0.07,0.04 4.46,-2.57 -0.07,0.03 4.61,-2.53 -0.07,0.04 4.78,-2.49 -0.06,0.03 4.93,-2.44 -0.06,0.03 5.07,-2.39 -0.05,0.02 5.23,-2.35 -0.06,0.02 5.38,-2.3 -0.05,0.02 5.52,-2.25 -0.05,0.02 5.66,-2.2 -0.06,0.02 5.81,-2.15 -0.05,0.01 5.94,-2.1 -0.05,0.02 6.08,-2.05 -0.05,0.02 6.21,-2 -0.05,0.02 6.34,-1.94 -0.05,0.02 6.48,-1.89 -0.04,0.02 6.58,-1.835 -0.05,0.013 6.72,-1.762 -0.06,0.015 13.78,-3.36 -0.08,0.018 14.24,-3.112 -0.08,0.017 14.67,-2.85 -0.07,0.013 15.1,-2.595 -0.08,0.012 15.49,-2.325 -0.07,0.01 15.87,-2.04 -0.07,0.008 16.23,-1.763 -0.07,0.007 16.57,-1.455 -0.07,0.006 16.87,-1.155 -0.07,0.004 17.24,-0.793 z M 400.49,82.22 421.01,71.1 399.8,61.351 Z"
           style="fill:#ff8000;fill-opacity:1;fill-rule:nonzero;stroke:none"
           id="path432"
           inkscape:connector-curvature="0" /></g></g><g
       id="g434"><g
         id="g436"
         clip-path="url(#clipPath440)"><path
           d="m 473.77,84.733 4.76,2.485 4.02,2.954 3.75,3.101 3.62,3.336 3.47,3.561 3.33,3.78 3.19,3.97 3.02,4.18 2.88,4.37 2.72,4.55 2.55,4.7 2.4,4.88 2.22,5.02 2.05,5.16 1.88,5.3 1.68,5.43 1.51,5.53 1.33,5.65 1.13,5.75 0.93,5.83 0.74,5.91 0.52,5.99 0.33,6.04 0.1,6.11 -0.1,6.15 -0.33,6.18 -0.56,6.22 -0.78,6.22 -0.69,4.4 -0.81,4.32 -0.9,4.26 -1,4.2 -1.12,4.12 -1.21,4.06 -1.31,3.99 -1.41,3.9 -1.5,3.82 -1.59,3.75 -1.68,3.65 -1.77,3.58 -1.87,3.48 -1.94,3.37 -2.02,3.29 -2.12,3.18 -2.19,3.09 -2.27,2.96 -2.34,2.87 -2.42,2.75 -2.49,2.63 -2.57,2.52 -2.63,2.38 -2.7,2.27 -2.76,2.14 -2.84,2.01 -2.89,1.86 -2.94,1.73 -3.02,1.59 -3.07,1.43 -3.12,1.29 -3.08,1.11 -2.35,-6.56 3.01,-1.08 -0.15,0.06 2.97,-1.22 -0.15,0.07 2.92,-1.37 -0.15,0.07 2.87,-1.51 -0.14,0.08 2.81,-1.65 -0.12,0.07 2.77,-1.78 -0.13,0.08 2.72,-1.92 -0.12,0.09 2.65,-2.05 -0.11,0.09 2.59,-2.18 -0.1,0.08 2.54,-2.29 -0.1,0.09 2.46,-2.42 -0.08,0.09 2.4,-2.54 -0.08,0.1 2.33,-2.66 -0.08,0.09 2.27,-2.77 -0.07,0.09 2.2,-2.87 -0.07,0.09 2.12,-2.98 -0.07,0.09 2.05,-3.09 -0.06,0.1 1.96,-3.19 -0.05,0.08 1.89,-3.28 -0.05,0.09 1.82,-3.38 -0.06,0.1 1.73,-3.48 -0.04,0.09 1.64,-3.57 -0.04,0.1 1.55,-3.65 -0.04,0.09 1.47,-3.73 -0.04,0.09 1.37,-3.81 -0.03,0.08 1.28,-3.89 -0.02,0.09 1.18,-3.96 -0.03,0.09 1.09,-4.04 -0.02,0.1 0.98,-4.11 -0.02,0.09 0.89,-4.17 -0.02,0.08 0.79,-4.23 -0.02,0.1 0.67,-4.3 -0.01,0.11 0.76,-6.11 -0.01,0.12 0.55,-6.09 -0.01,0.13 0.32,-6.06 v 0.12 l 0.1,-6.02 v 0.12 l -0.1,-5.98 v 0.12 l -0.31,-5.92 0.01,0.12 -0.52,-5.87 0.01,0.13 -0.72,-5.79 0.02,0.12 -0.92,-5.71 0.02,0.12 -1.1,-5.63 0.03,0.13 -1.3,-5.53 0.03,0.12 -1.47,-5.41 0.03,0.12 -1.65,-5.31 0.04,0.13 -1.83,-5.17 0.05,0.12 -2,-5.04 0.05,0.12 -2.17,-4.89 0.06,0.12 -2.33,-4.75 0.06,0.13 -2.48,-4.58 0.07,0.12 -2.64,-4.41 0.08,0.13 -2.79,-4.24 0.08,0.12 -2.93,-4.05 0.1,0.14 -3.08,-3.85 0.1,0.13 -3.21,-3.66 0.12,0.13 -3.35,-3.42 0.13,0.12 -3.48,-3.207 0.14,0.124 -3.6,-2.978 0.16,0.123 -3.72,-2.737 0.44,0.28 -4.52,-2.363 z m -2.88,14.015 -14.48,-18.31 23.33,-0.599 z"
           style="fill:#ff8000;fill-opacity:1;fill-rule:nonzero;stroke:none"
           id="path442"
           inkscape:connector-curvature="0" /></g></g><g
       id="g444"><g
         id="g446"
         clip-path="url(#clipPath450)"><path
           d="m 475.31,68.195 17.27,0.795 16.96,1.16 16.63,1.462 16.29,1.77 15.95,2.049 15.56,2.336 15.17,2.607 14.75,2.865 14.32,3.13 13.85,3.377 6.77,1.777 6.63,1.842 6.51,1.895 6.39,1.949 6.25,2.01 6.13,2.061 5.99,2.12 5.85,2.17 5.72,2.23 5.58,2.27 5.43,2.33 5.29,2.38 5.14,2.42 4.99,2.47 4.83,2.52 4.69,2.57 4.52,2.61 4.36,2.65 4.21,2.71 4.04,2.74 3.86,2.79 3.71,2.83 3.53,2.87 3.34,2.92 3.18,2.95 3,3 2.81,3.04 2.62,3.08 2.43,3.13 2.24,3.16 2.05,3.2 1.84,3.24 1.65,3.27 1.43,3.33 1.21,3.35 1,3.38 0.77,3.42 0.56,3.44 0.31,3.48 0.09,3.48 -0.15,3.51 -0.39,3.52 -0.57,3.23 -0.76,3.2 -0.96,3.18 -1.14,3.14 -1.33,3.11 -1.51,3.08 -1.7,3.04 -1.86,3 -2.04,2.97 -2.21,2.94 -2.37,2.89 -2.54,2.87 -2.7,2.82 -2.85,2.78 -3.01,2.75 -3.16,2.71 -3.32,2.68 -3.46,2.63 -3.61,2.6 -3.75,2.56 -3.9,2.52 -4.04,2.49 -4.17,2.43 -4.31,2.41 -4.45,2.36 -4.58,2.32 -4.71,2.28 -4.84,2.24 -4.96,2.19 -5.09,2.14 -5.2,2.11 -5.34,2.06 -11,3.97 -11.47,3.8 -11.9,3.59 -12.33,3.4 -12.73,3.19 -13.13,2.98 -13.5,2.76 -13.86,2.53 -14.2,2.31 -14.51,2.07 -14.83,1.83 -15.12,1.57 -15.39,1.32 -15.65,1.06 -15.89,0.79 -16.08,0.51 -0.22,-6.96 16.05,-0.51 -0.07,0.01 15.83,-0.79 h -0.06 l 15.59,-1.05 h -0.06 l 15.32,-1.31 h -0.06 l 15.06,-1.56 h -0.07 l 14.76,-1.81 -0.06,0.01 14.45,-2.07 -0.07,0.02 14.13,-2.3 -0.07,0.01 13.79,-2.52 -0.07,0.02 13.43,-2.75 -0.07,0.02 13.05,-2.97 -0.08,0.02 12.66,-3.17 -0.08,0.02 12.25,-3.37 -0.08,0.02 11.82,-3.57 -0.09,0.03 11.38,-3.77 -0.09,0.03 10.92,-3.94 -0.07,0.02 5.28,-2.04 -0.05,0.02 5.15,-2.08 -0.05,0.02 5.04,-2.12 -0.05,0.02 4.9,-2.17 -0.05,0.03 4.78,-2.22 -0.05,0.03 4.65,-2.25 -0.06,0.03 4.53,-2.29 -0.07,0.03 4.39,-2.33 -0.06,0.03 4.24,-2.37 -0.05,0.04 4.11,-2.4 -0.07,0.04 3.97,-2.45 -0.07,0.05 3.83,-2.48 -0.07,0.05 3.68,-2.51 -0.07,0.05 3.53,-2.55 -0.07,0.06 3.39,-2.58 -0.08,0.06 3.24,-2.61 -0.08,0.06 3.08,-2.64 -0.08,0.08 2.92,-2.68 -0.08,0.08 2.77,-2.7 -0.09,0.09 2.61,-2.73 -0.08,0.09 2.45,-2.77 -0.09,0.11 2.28,-2.79 -0.09,0.12 2.12,-2.82 -0.08,0.12 1.95,-2.84 -0.09,0.13 1.78,-2.86 -0.09,0.14 1.62,-2.89 -0.09,0.16 1.43,-2.92 -0.07,0.17 1.25,-2.94 -0.07,0.17 1.08,-2.95 -0.06,0.19 0.9,-2.99 -0.06,0.2 0.72,-3 -0.04,0.2 0.53,-3.02 -0.03,0.23 0.36,-3.3 -0.02,0.23 0.14,-3.27 v 0.24 l -0.08,-3.25 0.01,0.22 -0.29,-3.24 0.03,0.24 -0.52,-3.22 0.04,0.22 -0.73,-3.2 0.06,0.21 -0.94,-3.17 0.07,0.2 -1.14,-3.16 0.07,0.19 -1.35,-3.13 0.09,0.18 -1.56,-3.1 0.08,0.15 -1.74,-3.08 0.09,0.16 -1.95,-3.05 0.08,0.13 -2.14,-3.03 0.1,0.13 -2.34,-3 0.09,0.12 -2.53,-2.97 0.1,0.1 -2.72,-2.94 0.1,0.1 -2.91,-2.9 0.1,0.09 -3.09,-2.87 0.08,0.07 -3.26,-2.84 0.08,0.07 -3.44,-2.8 0.09,0.07 -3.63,-2.77 0.08,0.06 -3.78,-2.73 0.07,0.05 -3.96,-2.69 0.08,0.05 -4.13,-2.66 0.07,0.05 -4.29,-2.61 0.07,0.04 -4.46,-2.57 0.07,0.03 -4.62,-2.53 0.07,0.03 -4.77,-2.48 0.06,0.03 -4.93,-2.44 0.06,0.03 -5.08,-2.39 0.06,0.02 -5.24,-2.35 0.06,0.02 -5.37,-2.3 0.05,0.02 -5.52,-2.25 0.05,0.02 -5.67,-2.2 0.05,0.02 -5.79,-2.16 0.05,0.02 -5.95,-2.1 0.05,0.02 -6.08,-2.05 0.05,0.02 -6.21,-2 0.05,0.02 -6.34,-1.94 0.04,0.02 -6.46,-1.89 0.04,0.02 -6.59,-1.834 0.05,0.012 -6.72,-1.762 0.06,0.015 -13.77,-3.36 0.08,0.019 -14.25,-3.113 0.08,0.017 -14.67,-2.85 0.07,0.013 -15.09,-2.595 0.07,0.012 -15.49,-2.325 0.07,0.01 -15.87,-2.04 0.07,0.008 -16.22,-1.762 0.07,0.007 -16.57,-1.455 0.07,0.005 -16.89,-1.155 0.08,0.004 -17.23,-0.793 z m 2.97,14.026 -20.53,-11.121 21.22,-9.748 z"
           style="fill:#ff8000;fill-opacity:1;fill-rule:nonzero;stroke:none"
           id="path452"
           inkscape:connector-curvature="0" /></g></g><g
       id="g454"><g
         id="g456"
         clip-path="url(#clipPath460)"><text
           transform="matrix(1,0,0,-1,335.74,631.92)"
           style="font-variant:normal;font-weight:normal;font-size:18px;font-family:Calibri;-inkscape-font-specification:Calibri;writing-mode:lr-tb;fill:#000000;fill-opacity:1;fill-rule:nonzero;stroke:none"
           id="text464"><tspan
             x="0 8.2620001 17.712 27.216 35.694 41.976002 46.062"
             y="0"
             sodipodi:role="line"
             id="tspan462">Subgrid</tspan></text>
</g></g><g
       id="g466"><g
         id="g468"
         clip-path="url(#clipPath472)"><text
           transform="matrix(1,0,0,-1,391.3,631.92)"
           style="font-variant:normal;font-weight:normal;font-size:18px;font-family:Calibri;-inkscape-font-specification:Calibri;writing-mode:lr-tb;fill:#000000;fill-opacity:1;fill-rule:nonzero;stroke:none"
           id="text476"><tspan
             x="0"
             y="0"
             id="tspan474">-</tspan></text>
</g></g><g
       id="g478"><g
         id="g480"
         clip-path="url(#clipPath484)"><text
           transform="matrix(1,0,0,-1,396.82,631.92)"
           style="font-variant:normal;font-weight:normal;font-size:18px;font-family:Calibri;-inkscape-font-specification:Calibri;writing-mode:lr-tb;fill:#000000;fill-opacity:1;fill-rule:nonzero;stroke:none"
           id="text488"><tspan
             x="0 7.0380001 14.526 23.148001 27.288"
             y="0"
             sodipodi:role="line"
             id="tspan486">scale</tspan></text>
</g></g><g
       id="g490"><g
         id="g492"
         clip-path="url(#clipPath496)"><text
           transform="matrix(1,0,0,-1,438.1,631.92)"
           style="font-variant:normal;font-weight:normal;font-size:18px;font-family:Arial;-inkscape-font-specification:'Arial Unicode MS';writing-mode:lr-tb;fill:#000000;fill-opacity:1;fill-rule:nonzero;stroke:none"
           id="text500"><tspan
             x="0 14.994 25.002001 34.001999 43.001999 48.006001 60.012001 69.966003 79.973999 85.968002 94.968002"
             y="0"
             sodipodi:role="line"
             id="tspan498">Mass Source</tspan></text>
</g></g><g
       id="g502"><g
         id="g504"
         clip-path="url(#clipPath508)"><text
           transform="matrix(1,0,0,-1,346.78,376.78)"
           style="font-variant:normal;font-weight:normal;font-size:18px;font-family:Calibri;-inkscape-font-specification:Calibri;writing-mode:lr-tb;fill:#000000;fill-opacity:1;fill-rule:nonzero;stroke:none"
           id="text512"><tspan
             x="0 8.2620001 17.712 27.216 35.694 41.976002 46.062"
             y="0"
             sodipodi:role="line"
             id="tspan510">Subgrid</tspan></text>
</g></g><g
       id="g514"><g
         id="g516"
         clip-path="url(#clipPath520)"><text
           transform="matrix(1,0,0,-1,402.36,376.78)"
           style="font-variant:normal;font-weight:normal;font-size:18px;font-family:Calibri;-inkscape-font-specification:Calibri;writing-mode:lr-tb;fill:#000000;fill-opacity:1;fill-rule:nonzero;stroke:none"
           id="text524"><tspan
             x="0"
             y="0"
             id="tspan522">-</tspan></text>
</g></g><g
       id="g526"><g
         id="g528"
         clip-path="url(#clipPath532)"><text
           transform="matrix(1,0,0,-1,407.88,376.78)"
           style="font-variant:normal;font-weight:normal;font-size:18px;font-family:Calibri;-inkscape-font-specification:Calibri;writing-mode:lr-tb;fill:#000000;fill-opacity:1;fill-rule:nonzero;stroke:none"
           id="text536"><tspan
             x="0 7.0380001 14.526 23.148001 27.288"
             y="0"
             sodipodi:role="line"
             id="tspan534">scale</tspan></text>
</g></g><g
       id="g538"><g
         id="g540"
         clip-path="url(#clipPath544)"><text
           transform="matrix(1,0,0,-1,449.16,376.78)"
           style="font-variant:normal;font-weight:normal;font-size:18px;font-family:Arial;-inkscape-font-specification:'Arial Unicode MS';writing-mode:lr-tb;fill:#000000;fill-opacity:1;fill-rule:nonzero;stroke:none"
           id="text548"><tspan
             x="0 14.994 25.002001 34.001999 43.001999 48.006001 60.012001 64.008003 73.926003"
             y="0"
             sodipodi:role="line"
             id="tspan546">Mass Sink</tspan></text>
</g></g><g
       id="g550"><g
         id="g552"
         clip-path="url(#clipPath556)"><text
           transform="matrix(1,0,0,-1,335.78,320.09)"
           style="font-variant:normal;font-weight:normal;font-size:18.02400017px;font-family:Calibri;-inkscape-font-specification:Calibri;writing-mode:lr-tb;fill:#000000;fill-opacity:1;fill-rule:nonzero;stroke:none"
           id="text560"><tspan
             x="0"
             y="0"
             id="tspan558">S</tspan></text>
</g></g><g
       id="g562"><g
         id="g564"
         clip-path="url(#clipPath568)"><text
           transform="matrix(1,0,0,-1,344.06,320.09)"
           style="font-variant:normal;font-weight:normal;font-size:18.02400017px;font-family:Calibri;-inkscape-font-specification:Calibri;writing-mode:lr-tb;fill:#000000;fill-opacity:1;fill-rule:nonzero;stroke:none"
           id="text572"><tspan
             x="0 9.4625998 18.9252 27.468576 33.758953 37.796329"
             y="0"
             sodipodi:role="line"
             id="tspan570">ubgrid</tspan></text>
</g></g><g
       id="g574"><g
         id="g576"
         clip-path="url(#clipPath580)"><text
           transform="matrix(1,0,0,-1,391.34,320.09)"
           style="font-variant:normal;font-weight:normal;font-size:18.02400017px;font-family:Calibri;-inkscape-font-specification:Calibri;writing-mode:lr-tb;fill:#000000;fill-opacity:1;fill-rule:nonzero;stroke:none"
           id="text584"><tspan
             x="0"
             y="0"
             id="tspan582">-</tspan></text>
</g></g><g
       id="g586"><g
         id="g588"
         clip-path="url(#clipPath592)"><text
           transform="matrix(1,0,0,-1,396.86,320.09)"
           style="font-variant:normal;font-weight:normal;font-size:18.02400017px;font-family:Calibri;-inkscape-font-specification:Calibri;writing-mode:lr-tb;fill:#000000;fill-opacity:1;fill-rule:nonzero;stroke:none"
           id="text596"><tspan
             x="0 7.0473838 14.527344 23.160839 27.252289"
             y="0"
             sodipodi:role="line"
             id="tspan594">scale</tspan></text>
</g></g><g
       id="g598"><g
         id="g600"
         clip-path="url(#clipPath604)"><text
           transform="matrix(1,0,0,-1,438.14,320.09)"
           style="font-variant:normal;font-weight:normal;font-size:18.02400017px;font-family:Arial;-inkscape-font-specification:'Arial Unicode MS';writing-mode:lr-tb;fill:#000000;fill-opacity:1;fill-rule:nonzero;stroke:none"
           id="text608"><tspan
             x="0 15.013992 24.96324 33.975239 42.98724 47.997913 60.01992 69.96917 79.93644 85.938431 94.950432"
             y="0"
             sodipodi:role="line"
             id="tspan606">Mass Source</tspan></text>
</g></g><g
       id="g610"><g
         id="g612"
         clip-path="url(#clipPath616)"><text
           transform="matrix(1,0,0,-1,346.78,64.92)"
           style="font-variant:normal;font-weight:normal;font-size:18px;font-family:Calibri;-inkscape-font-specification:Calibri;writing-mode:lr-tb;fill:#000000;fill-opacity:1;fill-rule:nonzero;stroke:none"
           id="text620"><tspan
             x="0 8.2620001 17.712 27.216 35.694 41.976002 46.062"
             y="0"
             sodipodi:role="line"
             id="tspan618">Subgrid</tspan></text>
</g></g><g
       id="g622"><g
         id="g624"
         clip-path="url(#clipPath628)"><text
           transform="matrix(1,0,0,-1,402.36,64.92)"
           style="font-variant:normal;font-weight:normal;font-size:18px;font-family:Calibri;-inkscape-font-specification:Calibri;writing-mode:lr-tb;fill:#000000;fill-opacity:1;fill-rule:nonzero;stroke:none"
           id="text632"><tspan
             x="0"
             y="0"
             id="tspan630">-</tspan></text>
</g></g><g
       id="g634"><g
         id="g636"
         clip-path="url(#clipPath640)"><text
           transform="matrix(1,0,0,-1,407.88,64.92)"
           style="font-variant:normal;font-weight:normal;font-size:18px;font-family:Calibri;-inkscape-font-specification:Calibri;writing-mode:lr-tb;fill:#000000;fill-opacity:1;fill-rule:nonzero;stroke:none"
           id="text644"><tspan
             x="0 7.0380001 14.526 23.148001 27.288"
             y="0"
             sodipodi:role="line"
             id="tspan642">scale</tspan></text>
</g></g><g
       id="g646"><g
         id="g648"
         clip-path="url(#clipPath652)"><text
           transform="matrix(1,0,0,-1,449.16,64.92)"
           style="font-variant:normal;font-weight:normal;font-size:18px;font-family:Arial;-inkscape-font-specification:'Arial Unicode MS';writing-mode:lr-tb;fill:#000000;fill-opacity:1;fill-rule:nonzero;stroke:none"
           id="text656"><tspan
             x="0 14.994 25.002001 34.001999 43.001999 48.006001 60.012001 64.008003 73.926003"
             y="0"
             sodipodi:role="line"
             id="tspan654">Mass Sink</tspan></text>
</g></g><g
       id="g658"><g
         id="g660"
         clip-path="url(#clipPath664)"><path
           d="M 553.44,41.04 H 325.32 v 3 h 228.12 z m -1.5,9 15,-7.5 -15,-7.5 z m -225.12,-15 -15,7.5 15,7.5 z"
           style="fill:#000000;fill-opacity:1;fill-rule:nonzero;stroke:none"
           id="path666"
           inkscape:connector-curvature="0" /></g></g><path
       d="M 412.32,31.68 H 466.2 V 53.4 h -53.88 z"
       style="fill:#ffffff;fill-opacity:1;fill-rule:evenodd;stroke:none"
       id="path668"
       inkscape:connector-curvature="0" /><g
       id="g670"><g
         id="g672"
         clip-path="url(#clipPath676)"><text
           transform="matrix(1,0,0,-1,419.83,36.072)"
           style="font-variant:normal;font-weight:normal;font-size:18px;font-family:Arial;-inkscape-font-specification:'Arial Unicode MS';writing-mode:lr-tb;fill:#000000;fill-opacity:1;fill-rule:nonzero;stroke:none"
           id="text680"><tspan
             x="0"
             y="0"
             id="tspan678">9</tspan></text>
</g></g><g
       id="g682"><g
         id="g684"
         clip-path="url(#clipPath688)"><text
           transform="matrix(1,0,0,-1,434.83,36.072)"
           style="font-variant:normal;font-weight:normal;font-size:18px;font-family:Arial;-inkscape-font-specification:'Arial Unicode MS';writing-mode:lr-tb;fill:#000000;fill-opacity:1;fill-rule:nonzero;stroke:none"
           id="text692"><tspan
             x="0 9"
             y="0"
             sodipodi:role="line"
             id="tspan690">km</tspan></text>
</g></g><g
       id="g694"><g
         id="g696"
         clip-path="url(#clipPath700)"><path
           d="M 808.55,12.6 H 70.201 v 3 H 808.55 Z m -1.5,9 15,-7.5 -15,-7.4997 z M 71.7,6.6002 56.7,14.1 l 15,7.5 z"
           style="fill:#000000;fill-opacity:1;fill-rule:nonzero;stroke:none"
           id="path702"
           inkscape:connector-curvature="0" /></g></g><path
       d="m 407.28,3.36 h 63.96 v 21.72 h -63.96 z"
       style="fill:#ffffff;fill-opacity:1;fill-rule:evenodd;stroke:none"
       id="path704"
       inkscape:connector-curvature="0" /><g
       id="g706"><g
         id="g708"
         clip-path="url(#clipPath712)"><text
           transform="matrix(1,0,0,-1,414.82,7.728)"
           style="font-variant:normal;font-weight:normal;font-size:18px;font-family:Arial;-inkscape-font-specification:'Arial Unicode MS';writing-mode:lr-tb;fill:#000000;fill-opacity:1;fill-rule:nonzero;stroke:none"
           id="text716"><tspan
             x="0 10.008 19.926001 24.93 33.93"
             y="0"
             sodipodi:role="line"
             id="tspan714">27 km</tspan></text>
</g></g></g></svg>