<?xml version="1.0" encoding="UTF-8" standalone="no"?>
<!-- Created with Inkscape (http://www.inkscape.org/) -->

<svg
   xmlns:dc="http://purl.org/dc/elements/1.1/"
   xmlns:cc="http://creativecommons.org/ns#"
   xmlns:rdf="http://www.w3.org/1999/02/22-rdf-syntax-ns#"
   xmlns:svg="http://www.w3.org/2000/svg"
   xmlns="http://www.w3.org/2000/svg"
   xmlns:sodipodi="http://sodipodi.sourceforge.net/DTD/sodipodi-0.dtd"
   xmlns:inkscape="http://www.inkscape.org/namespaces/inkscape"
   version="1.1"
   id="svg4675"
   xml:space="preserve"
   width="1171.6801"
   height="1322.88"
   viewBox="0 0 1171.6801 1322.88"
   sodipodi:docname="Research_3.svg"
   inkscape:version="0.92.3 (2405546, 2018-03-11)"><metadata
     id="metadata4681"><rdf:RDF><cc:Work
         rdf:about=""><dc:format>image/svg+xml</dc:format><dc:type
           rdf:resource="http://purl.org/dc/dcmitype/StillImage" /><dc:title></dc:title></cc:Work></rdf:RDF></metadata><defs
     id="defs4679"><clipPath
       clipPathUnits="userSpaceOnUse"
       id="clipPath4691"><path
         d="M 0,2.4414e-4 H 878.76 V 992.16024 H 0 Z"
         id="path4689"
         inkscape:connector-curvature="0"
         style="clip-rule:evenodd" /></clipPath><clipPath
       clipPathUnits="userSpaceOnUse"
       id="clipPath4701"><path
         d="M 1.3095e-5,-6.1035e-5 H 878.76001 V 992.15994 H 1.3095e-5 Z"
         id="path4699"
         inkscape:connector-curvature="0"
         style="clip-rule:evenodd" /></clipPath><clipPath
       clipPathUnits="userSpaceOnUse"
       id="clipPath4713"><path
         d="M 1.3095e-5,-6.1035e-5 H 878.76001 V 992.15994 H 1.3095e-5 Z"
         id="path4711"
         inkscape:connector-curvature="0"
         style="clip-rule:evenodd" /></clipPath><clipPath
       clipPathUnits="userSpaceOnUse"
       id="clipPath4725"><path
         d="M 1.3095e-5,-6.1035e-5 H 878.76001 V 992.15994 H 1.3095e-5 Z"
         id="path4723"
         inkscape:connector-curvature="0"
         style="clip-rule:evenodd" /></clipPath><clipPath
       clipPathUnits="userSpaceOnUse"
       id="clipPath4737"><path
         d="M 1.3095e-5,-6.1035e-5 H 878.76001 V 992.15994 H 1.3095e-5 Z"
         id="path4735"
         inkscape:connector-curvature="0"
         style="clip-rule:evenodd" /></clipPath><clipPath
       clipPathUnits="userSpaceOnUse"
       id="clipPath4749"><path
         d="M 1.3095e-5,-6.1035e-5 H 878.76001 V 992.15994 H 1.3095e-5 Z"
         id="path4747"
         inkscape:connector-curvature="0"
         style="clip-rule:evenodd" /></clipPath><clipPath
       clipPathUnits="userSpaceOnUse"
       id="clipPath4773"><path
         d="M 1.7894e-5,992.16 H 878.76 V -6.1035e-5 H -2.1476e-5"
         id="path4771"
         inkscape:connector-curvature="0"
         style="clip-rule:evenodd" /></clipPath><clipPath
       clipPathUnits="userSpaceOnUse"
       id="clipPath4791"><path
         d="M -2.0135e-5,992.16 H 878.76 V -6.1035e-5 H -5.9505e-5"
         id="path4789"
         inkscape:connector-curvature="0"
         style="clip-rule:evenodd" /></clipPath><clipPath
       clipPathUnits="userSpaceOnUse"
       id="clipPath4809"><path
         d="M -2.39e-7,992.16 H 878.76 V -6.1035e-5 H -3.9609e-5"
         id="path4807"
         inkscape:connector-curvature="0"
         style="clip-rule:evenodd" /></clipPath><clipPath
       clipPathUnits="userSpaceOnUse"
       id="clipPath4819"><path
         d="M 1.3095e-5,-6.1035e-5 H 878.76001 V 992.15994 H 1.3095e-5 Z"
         id="path4817"
         inkscape:connector-curvature="0"
         style="clip-rule:evenodd" /></clipPath><clipPath
       clipPathUnits="userSpaceOnUse"
       id="clipPath4831"><path
         d="M 1.3095e-5,-6.1035e-5 H 878.76001 V 992.15994 H 1.3095e-5 Z"
         id="path4829"
         inkscape:connector-curvature="0"
         style="clip-rule:evenodd" /></clipPath><clipPath
       clipPathUnits="userSpaceOnUse"
       id="clipPath4843"><path
         d="M 1.3095e-5,-6.1035e-5 H 878.76001 V 992.15994 H 1.3095e-5 Z"
         id="path4841"
         inkscape:connector-curvature="0"
         style="clip-rule:evenodd" /></clipPath><clipPath
       clipPathUnits="userSpaceOnUse"
       id="clipPath4855"><path
         d="M 1.3095e-5,-6.1035e-5 H 878.76001 V 992.15994 H 1.3095e-5 Z"
         id="path4853"
         inkscape:connector-curvature="0"
         style="clip-rule:evenodd" /></clipPath><clipPath
       clipPathUnits="userSpaceOnUse"
       id="clipPath4867"><path
         d="M 1.3095e-5,-6.1035e-5 H 878.76001 V 992.15994 H 1.3095e-5 Z"
         id="path4865"
         inkscape:connector-curvature="0"
         style="clip-rule:evenodd" /></clipPath><clipPath
       clipPathUnits="userSpaceOnUse"
       id="clipPath4879"><path
         d="M 1.3095e-5,-6.1035e-5 H 878.76001 V 992.15994 H 1.3095e-5 Z"
         id="path4877"
         inkscape:connector-curvature="0"
         style="clip-rule:evenodd" /></clipPath><clipPath
       clipPathUnits="userSpaceOnUse"
       id="clipPath4891"><path
         d="M 1.3095e-5,-6.1035e-5 H 878.76001 V 992.15994 H 1.3095e-5 Z"
         id="path4889"
         inkscape:connector-curvature="0"
         style="clip-rule:evenodd" /></clipPath><clipPath
       clipPathUnits="userSpaceOnUse"
       id="clipPath4903"><path
         d="M 1.3095e-5,-6.1035e-5 H 878.76001 V 992.15994 H 1.3095e-5 Z"
         id="path4901"
         inkscape:connector-curvature="0"
         style="clip-rule:evenodd" /></clipPath><clipPath
       clipPathUnits="userSpaceOnUse"
       id="clipPath4919"><path
         d="M -4.8578e-5,992.16 H 878.76 V 2.4414e-4 H -4.8578e-5"
         id="path4917"
         inkscape:connector-curvature="0"
         style="clip-rule:evenodd" /></clipPath><clipPath
       clipPathUnits="userSpaceOnUse"
       id="clipPath4939"><path
         d="M 6.87e-6,992.16 H 878.76 V -6.1035e-5 L -3.25e-5,0"
         id="path4937"
         inkscape:connector-curvature="0"
         style="clip-rule:evenodd" /></clipPath><clipPath
       clipPathUnits="userSpaceOnUse"
       id="clipPath4949"><path
         d="M 5.5369e-5,992.16 H 878.76 V 1.8311e-4 L -1.2019e-5,2.4414e-4"
         id="path4947"
         inkscape:connector-curvature="0"
         style="clip-rule:evenodd" /></clipPath><clipPath
       clipPathUnits="userSpaceOnUse"
       id="clipPath4959"><path
         d="M 2.9657e-5,992.16 H 878.76 V -1.2207e-4 L 2.0211e-5,-6.1035e-5"
         id="path4957"
         inkscape:connector-curvature="0"
         style="clip-rule:evenodd" /></clipPath><clipPath
       clipPathUnits="userSpaceOnUse"
       id="clipPath4969"><path
         d="M 1.8612e-5,992.16 H 878.76 V -6.1035e-5 L -5.597e-6,0"
         id="path4967"
         inkscape:connector-curvature="0"
         style="clip-rule:evenodd" /></clipPath><clipPath
       clipPathUnits="userSpaceOnUse"
       id="clipPath4979"><path
         d="M -1.784e-6,992.16 H 878.76 V 6.1035e-5 H -1.0821e-4"
         id="path4977"
         inkscape:connector-curvature="0"
         style="clip-rule:evenodd" /></clipPath><clipPath
       clipPathUnits="userSpaceOnUse"
       id="clipPath4989"><path
         d="M 9.413e-6,992.16 H 878.76 V 1.8311e-4 L -1.611e-6,1.2207e-4"
         id="path4987"
         inkscape:connector-curvature="0"
         style="clip-rule:evenodd" /></clipPath><clipPath
       clipPathUnits="userSpaceOnUse"
       id="clipPath4999"><path
         d="M 1.2748e-5,992.16 H 878.76 V 0 H 1.0451e-4"
         id="path4997"
         inkscape:connector-curvature="0"
         style="clip-rule:evenodd" /></clipPath><clipPath
       clipPathUnits="userSpaceOnUse"
       id="clipPath5009"><path
         d="M 1.9181e-5,992.16 H 878.76 V 0 L 1.3652e-4,6.1035e-5"
         id="path5007"
         inkscape:connector-curvature="0"
         style="clip-rule:evenodd" /></clipPath><clipPath
       clipPathUnits="userSpaceOnUse"
       id="clipPath5019"><path
         d="M 3.6915e-5,992.16 H 878.76 V -1.2207e-4 L 1.1485e-4,-6.1035e-5"
         id="path5017"
         inkscape:connector-curvature="0"
         style="clip-rule:evenodd" /></clipPath><clipPath
       clipPathUnits="userSpaceOnUse"
       id="clipPath5037"><path
         d="M -3.6389e-5,992.16 H 878.76 V 1.8311e-4 H -3.6389e-5"
         id="path5035"
         inkscape:connector-curvature="0"
         style="clip-rule:evenodd" /></clipPath><clipPath
       clipPathUnits="userSpaceOnUse"
       id="clipPath5061"><path
         d="M 6.87e-6,992.16 H 878.76 V 0 L -3.25e-5,6.1035e-5"
         id="path5059"
         inkscape:connector-curvature="0"
         style="clip-rule:evenodd" /></clipPath><clipPath
       clipPathUnits="userSpaceOnUse"
       id="clipPath5071"><path
         d="M 7.0853e-5,992.16 H 878.76 V 1.2207e-4 H -4.311e-5"
         id="path5069"
         inkscape:connector-curvature="0"
         style="clip-rule:evenodd" /></clipPath><clipPath
       clipPathUnits="userSpaceOnUse"
       id="clipPath5081"><path
         d="M 3.5445e-5,992.16 H 878.76 V -6.1035e-5 H 1.6157e-5"
         id="path5079"
         inkscape:connector-curvature="0"
         style="clip-rule:evenodd" /></clipPath><clipPath
       clipPathUnits="userSpaceOnUse"
       id="clipPath5091"><path
         d="M -1.0048e-5,992.16 H 878.76 V -1.2207e-4 L -2.9337e-5,-6.1035e-5"
         id="path5089"
         inkscape:connector-curvature="0"
         style="clip-rule:evenodd" /></clipPath><clipPath
       clipPathUnits="userSpaceOnUse"
       id="clipPath5101"><path
         d="M -1.9621e-5,992.16 H 878.76 V 0 H -1.5294e-4"
         id="path5099"
         inkscape:connector-curvature="0"
         style="clip-rule:evenodd" /></clipPath><clipPath
       clipPathUnits="userSpaceOnUse"
       id="clipPath5111"><path
         d="M 1.9995e-5,992.16 H 878.76 V 1.2207e-4 L 2.6068e-5,6.1035e-5"
         id="path5109"
         inkscape:connector-curvature="0"
         style="clip-rule:evenodd" /></clipPath><clipPath
       clipPathUnits="userSpaceOnUse"
       id="clipPath5121"><path
         d="M 1.1691e-5,992.16 H 878.76 V 0 L 1.241e-4,6.1035e-5"
         id="path5119"
         inkscape:connector-curvature="0"
         style="clip-rule:evenodd" /></clipPath><clipPath
       clipPathUnits="userSpaceOnUse"
       id="clipPath5131"><path
         d="M 2.9285e-5,992.16 H 878.76 V 0 H 1.3801e-4"
         id="path5129"
         inkscape:connector-curvature="0"
         style="clip-rule:evenodd" /></clipPath><clipPath
       clipPathUnits="userSpaceOnUse"
       id="clipPath5141"><path
         d="M 2.2749e-5,992.16 H 878.76 V -1.2207e-4 L 1.006e-4,-6.1035e-5"
         id="path5139"
         inkscape:connector-curvature="0"
         style="clip-rule:evenodd" /></clipPath><clipPath
       clipPathUnits="userSpaceOnUse"
       id="clipPath5155"><path
         d="M -3.6389e-5,992.16 H 878.76 V 1.2207e-4 H -3.6389e-5"
         id="path5153"
         inkscape:connector-curvature="0"
         style="clip-rule:evenodd" /></clipPath><clipPath
       clipPathUnits="userSpaceOnUse"
       id="clipPath5169"><path
         d="M 1.3095e-5,-6.1035e-5 H 878.76001 V 992.15994 H 1.3095e-5 Z"
         id="path5167"
         inkscape:connector-curvature="0"
         style="clip-rule:evenodd" /></clipPath><clipPath
       clipPathUnits="userSpaceOnUse"
       id="clipPath5181"><path
         d="M 1.3095e-5,-6.1035e-5 H 878.76001 V 992.15994 H 1.3095e-5 Z"
         id="path5179"
         inkscape:connector-curvature="0"
         style="clip-rule:evenodd" /></clipPath><clipPath
       clipPathUnits="userSpaceOnUse"
       id="clipPath5193"><path
         d="M 1.3095e-5,-6.1035e-5 H 878.76001 V 992.15994 H 1.3095e-5 Z"
         id="path5191"
         inkscape:connector-curvature="0"
         style="clip-rule:evenodd" /></clipPath></defs><sodipodi:namedview
     pagecolor="#ffffff"
     bordercolor="#666666"
     borderopacity="1"
     objecttolerance="10"
     gridtolerance="10"
     guidetolerance="10"
     inkscape:pageopacity="0"
     inkscape:pageshadow="2"
     inkscape:window-width="1920"
     inkscape:window-height="986"
     id="namedview4677"
     showgrid="false"
     inkscape:zoom="0.58130745"
     inkscape:cx="585.84003"
     inkscape:cy="661.44"
     inkscape:window-x="-11"
     inkscape:window-y="-11"
     inkscape:window-maximized="1"
     inkscape:current-layer="g4683" /><g
     id="g4683"
     inkscape:groupmode="layer"
     inkscape:label="f01"
     transform="matrix(1.3333333,0,0,-1.3333333,0,1322.88)"><g
       id="g4685"><g
         id="g4687"
         clip-path="url(#clipPath4691)"><path
           d="M 0,6.1035e-5 H 878.76 V 992.16006 H 0 Z"
           style="fill:#ffffff;fill-opacity:1;fill-rule:evenodd;stroke:none"
           id="path4693"
           inkscape:connector-curvature="0" /></g></g><g
       id="g4695"><g
         id="g4697"
         clip-path="url(#clipPath4701)"><text
           transform="matrix(1,0,0,-1,63.696,921.34)"
           style="font-variant:normal;font-weight:normal;font-size:39.98400116px;font-family:Arial;-inkscape-font-specification:ArialMT;writing-mode:lr-tb;fill:#000000;fill-opacity:1;fill-rule:nonzero;stroke:none"
           id="text4705"><tspan
             x="0 13.314672 35.545776 48.860447"
             y="0"
             sodipodi:role="line"
             id="tspan4703">(a) </tspan></text>
</g></g><g
       id="g4707"><g
         id="g4709"
         clip-path="url(#clipPath4713)"><text
           transform="matrix(1,0,0,-1,123.82,921.34)"
           style="font-variant:normal;font-weight:normal;font-size:39.98400116px;font-family:Arial;-inkscape-font-specification:ArialMT;writing-mode:lr-tb;fill:#000000;fill-opacity:1;fill-rule:nonzero;stroke:none"
           id="text4717"><tspan
             x="0 31.107552 44.422222 53.298672 75.529778 84.406227 106.63733 128.86844 137.74487"
             y="0"
             sodipodi:role="line"
             id="tspan4715">Original </tspan></text>
</g></g><g
       id="g4719"><g
         id="g4721"
         clip-path="url(#clipPath4725)"><text
           transform="matrix(1,0,0,-1,272.88,921.34)"
           style="font-variant:normal;font-weight:normal;font-size:39.98400116px;font-family:Arial;-inkscape-font-specification:ArialMT;writing-mode:lr-tb;fill:#000000;fill-opacity:1;fill-rule:nonzero;stroke:none"
           id="text4729"><tspan
             x="0 28.868448 51.099552 73.210701 84.326256 93.202705 115.43381 137.66492 150.97958 173.21069 184.32623 193.20268 215.43379"
             y="0"
             sodipodi:role="line"
             id="tspan4727">Configuration</tspan></text>
</g></g><g
       id="g4731"><g
         id="g4733"
         clip-path="url(#clipPath4737)"><text
           transform="matrix(1,0,0,-1,63.696,609.48)"
           style="font-variant:normal;font-weight:normal;font-size:39.95999908px;font-family:Arial;-inkscape-font-specification:ArialMT;writing-mode:lr-tb;fill:#000000;fill-opacity:1;fill-rule:nonzero;stroke:none"
           id="text4741"><tspan
             x="0 13.30668 35.524441 48.83112 57.942001 84.595322 106.81308 115.6842 137.90196 160.11972 182.33748 193.44637 202.31747 222.29749 232.767 255.70404 264.57516 273.44629 284.55515 293.42627 315.64404"
             y="0"
             sodipodi:role="line"
             id="tspan4739">(b) Adiabatic Tilting</tspan></text>
</g></g><g
       id="g4743"><g
         id="g4745"
         clip-path="url(#clipPath4749)"><text
           transform="matrix(1,0,0,-1,63.696,269.21)"
           style="font-variant:normal;font-weight:normal;font-size:39.95999908px;font-family:Arial;-inkscape-font-specification:ArialMT;writing-mode:lr-tb;fill:#000000;fill-opacity:1;fill-rule:nonzero;stroke:none"
           id="text4753"><tspan
             x="0 13.30668 33.286678 46.593361 57.782162 86.633278 95.504402 117.72216 139.93993 162.15768 173.26656 182.13768 202.11768 212.70708 235.64412 244.51524 253.38635 264.49524 273.36636 295.58411"
             y="0"
             sodipodi:role="line"
             id="tspan4751">(c) Diabatic Tilting</tspan></text>
</g></g><path
       d="M 56.7,878.7 H 822.03"
       style="fill:none;stroke:#000000;stroke-width:3;stroke-linecap:butt;stroke-linejoin:miter;stroke-miterlimit:10;stroke-dasharray:none;stroke-opacity:1"
       id="path4755"
       inkscape:connector-curvature="0" /><path
       d="M 56.7,765.3 H 822.03"
       style="fill:none;stroke:#000000;stroke-width:3;stroke-linecap:butt;stroke-linejoin:miter;stroke-miterlimit:10;stroke-dasharray:none;stroke-opacity:1"
       id="path4757"
       inkscape:connector-curvature="0" /><path
       d="m 439.44,878.7 c 23.49,0 42.54,-25.39 42.54,-56.7 0,-31.07 -18.76,-56.35 -42.07,-56.7"
       style="fill:none;stroke:#0070c0;stroke-width:3;stroke-linecap:butt;stroke-linejoin:miter;stroke-miterlimit:10;stroke-dasharray:none;stroke-opacity:1"
       id="path4759"
       inkscape:connector-curvature="0" /><g
       id="g4761"><path
         d="m 439.44,765.3 c -23.49,0 -42.54,25.39 -42.54,56.7 0,31.07 18.76,56.35 42.07,56.7"
         style="fill:none;stroke:#0070c0;stroke-width:3;stroke-linecap:butt;stroke-linejoin:miter;stroke-miterlimit:10;stroke-dasharray:12, 9;stroke-dashoffset:0;stroke-opacity:1"
         id="path4763"
         inkscape:connector-curvature="0" /></g><path
       d="M 481.98,822.06 459.3,844.74"
       style="fill:none;stroke:#0070c0;stroke-width:3;stroke-linecap:butt;stroke-linejoin:miter;stroke-miterlimit:10;stroke-dasharray:none;stroke-opacity:1"
       id="path4765"
       inkscape:connector-curvature="0" /><g
       id="g4767"><g
         id="g4769"
         clip-path="url(#clipPath4773)"><path
           d="m 481.98,822.06 22.68,22.68"
           style="fill:none;stroke:#0070c0;stroke-width:3;stroke-linecap:butt;stroke-linejoin:miter;stroke-miterlimit:10;stroke-dasharray:none;stroke-opacity:1"
           id="path4775"
           inkscape:connector-curvature="0" /></g></g><path
       d="m 547.14,878.7 c 23.46,0 42.48,-25.39 42.48,-56.7 0,-31.07 -18.73,-56.35 -42.01,-56.7"
       style="fill:none;stroke:#0070c0;stroke-width:3;stroke-linecap:butt;stroke-linejoin:miter;stroke-miterlimit:10;stroke-dasharray:none;stroke-opacity:1"
       id="path4777"
       inkscape:connector-curvature="0" /><g
       id="g4779"><path
         d="m 547.14,765.3 c -23.46,0 -42.48,25.39 -42.48,56.7 0,31.07 18.73,56.35 42.01,56.7"
         style="fill:none;stroke:#0070c0;stroke-width:3;stroke-linecap:butt;stroke-linejoin:miter;stroke-miterlimit:10;stroke-dasharray:12, 9;stroke-dashoffset:0;stroke-opacity:1"
         id="path4781"
         inkscape:connector-curvature="0" /></g><path
       d="m 589.62,822.06 -22.68,22.68"
       style="fill:none;stroke:#0070c0;stroke-width:3;stroke-linecap:butt;stroke-linejoin:miter;stroke-miterlimit:10;stroke-dasharray:none;stroke-opacity:1"
       id="path4783"
       inkscape:connector-curvature="0" /><g
       id="g4785"><g
         id="g4787"
         clip-path="url(#clipPath4791)"><path
           d="m 589.62,822.06 22.68,22.68"
           style="fill:none;stroke:#0070c0;stroke-width:3;stroke-linecap:butt;stroke-linejoin:miter;stroke-miterlimit:10;stroke-dasharray:none;stroke-opacity:1"
           id="path4793"
           inkscape:connector-curvature="0" /></g></g><path
       d="m 331.68,878.7 c 23.49,0 42.54,-25.39 42.54,-56.7 0,-31.07 -18.76,-56.35 -42.07,-56.7"
       style="fill:none;stroke:#0070c0;stroke-width:3;stroke-linecap:butt;stroke-linejoin:miter;stroke-miterlimit:10;stroke-dasharray:none;stroke-opacity:1"
       id="path4795"
       inkscape:connector-curvature="0" /><g
       id="g4797"><path
         d="m 331.68,765.3 c -23.49,0 -42.54,25.39 -42.54,56.7 0,31.07 18.76,56.35 42.07,56.7"
         style="fill:none;stroke:#0070c0;stroke-width:3;stroke-linecap:butt;stroke-linejoin:miter;stroke-miterlimit:10;stroke-dasharray:12, 9;stroke-dashoffset:0;stroke-opacity:1"
         id="path4799"
         inkscape:connector-curvature="0" /></g><path
       d="m 374.22,822.06 -22.68,22.68"
       style="fill:none;stroke:#0070c0;stroke-width:3;stroke-linecap:butt;stroke-linejoin:miter;stroke-miterlimit:10;stroke-dasharray:none;stroke-opacity:1"
       id="path4801"
       inkscape:connector-curvature="0" /><g
       id="g4803"><g
         id="g4805"
         clip-path="url(#clipPath4809)"><path
           d="m 374.22,822.06 22.68,22.68"
           style="fill:none;stroke:#0070c0;stroke-width:3;stroke-linecap:butt;stroke-linejoin:miter;stroke-miterlimit:10;stroke-dasharray:none;stroke-opacity:1"
           id="path4811"
           inkscape:connector-curvature="0" /></g></g><g
       id="g4813"><g
         id="g4815"
         clip-path="url(#clipPath4819)"><text
           transform="matrix(1,0,0,-1,777.29,722.9)"
           style="font-style:italic;font-variant:normal;font-weight:normal;font-size:39.98400116px;font-family:Arial;-inkscape-font-specification:Arial-ItalicMT;writing-mode:lr-tb;fill:#000000;fill-opacity:1;fill-rule:nonzero;stroke:none"
           id="text4823"><tspan
             x="0"
             y="0"
             id="tspan4821">θ</tspan></text>
</g></g><g
       id="g4825"><g
         id="g4827"
         clip-path="url(#clipPath4831)"><text
           transform="matrix(1,0,0,-1,799.03,713.06)"
           style="font-style:italic;font-variant:normal;font-weight:normal;font-size:26.66399956px;font-family:Arial;-inkscape-font-specification:Arial-ItalicMT;writing-mode:lr-tb;fill:#000000;fill-opacity:1;fill-rule:nonzero;stroke:none"
           id="text4835"><tspan
             x="0"
             y="0"
             id="tspan4833">0</tspan></text>
</g></g><g
       id="g4837"><g
         id="g4839"
         clip-path="url(#clipPath4843)"><text
           transform="matrix(1,0,0,-1,686.28,892.01)"
           style="font-style:italic;font-variant:normal;font-weight:normal;font-size:39.98400116px;font-family:Arial;-inkscape-font-specification:Arial-ItalicMT;writing-mode:lr-tb;fill:#000000;fill-opacity:1;fill-rule:nonzero;stroke:none"
           id="text4847"><tspan
             x="0"
             y="0"
             id="tspan4845">θ</tspan></text>
</g></g><g
       id="g4849"><g
         id="g4851"
         clip-path="url(#clipPath4855)"><text
           transform="matrix(1,0,0,-1,708,882.17)"
           style="font-style:italic;font-variant:normal;font-weight:normal;font-size:26.63999939px;font-family:Arial;-inkscape-font-specification:Arial-ItalicMT;writing-mode:lr-tb;fill:#000000;fill-opacity:1;fill-rule:nonzero;stroke:none"
           id="text4859"><tspan
             x="0"
             y="0"
             id="tspan4857">0</tspan></text>
</g></g><g
       id="g4861"><g
         id="g4863"
         clip-path="url(#clipPath4867)"><text
           transform="matrix(1,0,0,-1,734.04,892.01)"
           style="font-style:italic;font-variant:normal;font-weight:normal;font-size:39.98400116px;font-family:Arial;-inkscape-font-specification:Arial-ItalicMT;writing-mode:lr-tb;fill:#000000;fill-opacity:1;fill-rule:nonzero;stroke:none"
           id="text4871"><tspan
             x="0 23.279957"
             y="0"
             sodipodi:role="line"
             id="tspan4869">+ </tspan></text>
</g></g><g
       id="g4873"><g
         id="g4875"
         clip-path="url(#clipPath4879)"><text
           transform="matrix(1,0,0,-1,768.5,892.01)"
           style="font-style:italic;font-variant:normal;font-weight:normal;font-size:39.98400116px;font-family:Arial;-inkscape-font-specification:Arial-ItalicMT;writing-mode:lr-tb;fill:#000000;fill-opacity:1;fill-rule:nonzero;stroke:none"
           id="text4883"><tspan
             x="0 22.200005"
             y="0"
             sodipodi:role="line"
             id="tspan4881">δθ</tspan></text>
</g></g><g
       id="g4885"><g
         id="g4887"
         clip-path="url(#clipPath4891)"><text
           transform="matrix(1,0,0,-1,766.97,778.39)"
           style="font-variant:normal;font-weight:normal;font-size:39.95999908px;font-family:'Cambria Math';-inkscape-font-specification:CambriaMath;writing-mode:lr-tb;fill:#00b050;fill-opacity:1;fill-rule:nonzero;stroke:none"
           id="text4895"><tspan
             x="0"
             y="0"
             id="tspan4893">훚</tspan></text>
</g></g><g
       id="g4897"><g
         id="g4899"
         clip-path="url(#clipPath4903)"><text
           transform="matrix(1,0,0,-1,799.13,770.23)"
           style="font-variant:normal;font-weight:normal;font-size:29.15999985px;font-family:'Cambria Math';-inkscape-font-specification:CambriaMath;writing-mode:lr-tb;fill:#00b050;fill-opacity:1;fill-rule:nonzero;stroke:none"
           id="text4907"><tspan
             x="0"
             y="0"
             id="tspan4905">퐚</tspan></text>
</g></g><g
       id="g4909"><path
         d="M 56.7,822.06 H 822.05"
         style="fill:none;stroke:#00b050;stroke-width:3;stroke-linecap:butt;stroke-linejoin:miter;stroke-miterlimit:10;stroke-dasharray:24, 9;stroke-dashoffset:0;stroke-opacity:1"
         id="path4911"
         inkscape:connector-curvature="0" /></g><g
       id="g4913"><g
         id="g4915"
         clip-path="url(#clipPath4919)"><path
           d="M 822.06,822.06 799.38,799.38"
           style="fill:none;stroke:#00b050;stroke-width:3;stroke-linecap:butt;stroke-linejoin:miter;stroke-miterlimit:10;stroke-dasharray:none;stroke-opacity:1"
           id="path4921"
           inkscape:connector-curvature="0" /></g></g><path
       d="m 822.06,822.06 -22.68,22.68"
       style="fill:none;stroke:#00b050;stroke-width:3;stroke-linecap:butt;stroke-linejoin:miter;stroke-miterlimit:10;stroke-dasharray:none;stroke-opacity:1"
       id="path4923"
       inkscape:connector-curvature="0" /><path
       d="m 439.02,595.74 c 23.46,0 42.48,-25.39 42.48,-56.7 0,-31.07 -18.73,-56.35 -42.01,-56.7"
       style="fill:none;stroke:#0070c0;stroke-width:3;stroke-linecap:butt;stroke-linejoin:miter;stroke-miterlimit:10;stroke-dasharray:none;stroke-opacity:1"
       id="path4925"
       inkscape:connector-curvature="0" /><g
       id="g4927"><path
         d="m 439.02,482.34 c -23.46,0 -42.48,25.39 -42.48,56.7 0,31.07 18.73,56.35 42.01,56.7"
         style="fill:none;stroke:#0070c0;stroke-width:3;stroke-linecap:butt;stroke-linejoin:miter;stroke-miterlimit:10;stroke-dasharray:12, 9;stroke-dashoffset:0;stroke-opacity:1"
         id="path4929"
         inkscape:connector-curvature="0" /></g><path
       d="m 481.5,539.1 -22.68,22.68"
       style="fill:none;stroke:#0070c0;stroke-width:3;stroke-linecap:butt;stroke-linejoin:miter;stroke-miterlimit:10;stroke-dasharray:none;stroke-opacity:1"
       id="path4931"
       inkscape:connector-curvature="0" /><g
       id="g4933"><g
         id="g4935"
         clip-path="url(#clipPath4939)"><path
           d="m 481.5,539.1 22.68,22.68"
           style="fill:none;stroke:#0070c0;stroke-width:3;stroke-linecap:butt;stroke-linejoin:miter;stroke-miterlimit:10;stroke-dasharray:none;stroke-opacity:1"
           id="path4941"
           inkscape:connector-curvature="0" /></g></g><g
       id="g4943"><g
         id="g4945"
         clip-path="url(#clipPath4949)"><path
           d="m 563.66,544.6 c 20.34,-11.74 24.13,-43.24 8.48,-70.35 -15.53,-26.9 -44.41,-39.42 -64.76,-28.07"
           style="fill:none;stroke:#0070c0;stroke-width:3;stroke-linecap:butt;stroke-linejoin:miter;stroke-miterlimit:10;stroke-dasharray:none;stroke-opacity:1"
           id="path4951"
           inkscape:connector-curvature="0" /></g></g><g
       id="g4953"><g
         id="g4955"
         clip-path="url(#clipPath4959)"><path
           d="m 506.97,446.41 c -20.34,11.75 -24.13,43.24 -8.48,70.36 15.53,26.9 44.41,39.41 64.76,28.06"
           style="fill:none;stroke:#0070c0;stroke-width:3;stroke-linecap:butt;stroke-linejoin:miter;stroke-miterlimit:10;stroke-dasharray:12, 9;stroke-dashoffset:0;stroke-opacity:1"
           id="path4961"
           inkscape:connector-curvature="0" /></g></g><g
       id="g4963"><g
         id="g4965"
         clip-path="url(#clipPath4969)"><path
           d="m 572.14,474.24 -8.3,30.98"
           style="fill:none;stroke:#0070c0;stroke-width:3;stroke-linecap:butt;stroke-linejoin:miter;stroke-miterlimit:10;stroke-dasharray:none;stroke-opacity:1"
           id="path4971"
           inkscape:connector-curvature="0" /></g></g><g
       id="g4973"><g
         id="g4975"
         clip-path="url(#clipPath4979)"><path
           d="m 572.14,474.24 30.97,8.3"
           style="fill:none;stroke:#0070c0;stroke-width:3;stroke-linecap:butt;stroke-linejoin:miter;stroke-miterlimit:10;stroke-dasharray:none;stroke-opacity:1"
           id="path4981"
           inkscape:connector-curvature="0" /></g></g><g
       id="g4983"><g
         id="g4985"
         clip-path="url(#clipPath4989)"><path
           d="m 307.29,544.6 c 20.34,11.74 49.51,-0.72 65.17,-27.83 15.53,-26.9 11.93,-58.17 -8.07,-70.12"
           style="fill:none;stroke:#0070c0;stroke-width:3;stroke-linecap:butt;stroke-linejoin:miter;stroke-miterlimit:10;stroke-dasharray:none;stroke-opacity:1"
           id="path4991"
           inkscape:connector-curvature="0" /></g></g><g
       id="g4993"><g
         id="g4995"
         clip-path="url(#clipPath4999)"><path
           d="m 363.98,446.41 c -20.34,-11.74 -49.52,0.72 -65.17,27.84 -15.53,26.9 -11.93,58.16 8.07,70.11"
           style="fill:none;stroke:#0070c0;stroke-width:3;stroke-linecap:butt;stroke-linejoin:miter;stroke-miterlimit:10;stroke-dasharray:12, 9;stroke-dashoffset:0;stroke-opacity:1"
           id="path5001"
           inkscape:connector-curvature="0" /></g></g><g
       id="g5003"><g
         id="g5005"
         clip-path="url(#clipPath5009)"><path
           d="m 372.46,516.76 -30.98,8.3"
           style="fill:none;stroke:#0070c0;stroke-width:3;stroke-linecap:butt;stroke-linejoin:miter;stroke-miterlimit:10;stroke-dasharray:none;stroke-opacity:1"
           id="path5011"
           inkscape:connector-curvature="0" /></g></g><g
       id="g5013"><g
         id="g5015"
         clip-path="url(#clipPath5019)"><path
           d="m 372.46,516.76 8.3,30.98"
           style="fill:none;stroke:#0070c0;stroke-width:3;stroke-linecap:butt;stroke-linejoin:miter;stroke-miterlimit:10;stroke-dasharray:none;stroke-opacity:1"
           id="path5021"
           inkscape:connector-curvature="0" /></g></g><path
       d="m 57.06,539.69 c 100.53,1.13 207.17,0.22 270.34,9.51 63.17,9.28 72,46.18 108.68,46.18 36.68,0 46.87,-36.9 111.4,-46.18 64.53,-9.29 170.04,-10.98 275.78,-9.51"
       style="fill:none;stroke:#000000;stroke-width:3;stroke-linecap:butt;stroke-linejoin:miter;stroke-miterlimit:10;stroke-dasharray:none;stroke-opacity:1"
       id="path5023"
       inkscape:connector-curvature="0" /><path
       d="m 57.06,426.17 c 100.53,1.13 207.17,0.22 270.34,9.51 63.17,9.28 72,46.18 108.68,46.18 36.68,0 46.87,-36.9 111.4,-46.18 64.53,-9.29 170.04,-10.98 275.78,-9.51"
       style="fill:none;stroke:#000000;stroke-width:3;stroke-linecap:butt;stroke-linejoin:miter;stroke-miterlimit:10;stroke-dasharray:none;stroke-opacity:1"
       id="path5025"
       inkscape:connector-curvature="0" /><g
       id="g5027"><path
         d="m 57.06,482.81 c 100.53,1.13 207.17,0.22 270.34,9.51 63.17,9.28 72,46.18 108.68,46.18 36.68,0 46.87,-36.9 111.4,-46.18 64.53,-9.29 170.04,-10.98 275.78,-9.51"
         style="fill:none;stroke:#00b050;stroke-width:3;stroke-linecap:butt;stroke-linejoin:miter;stroke-miterlimit:10;stroke-dasharray:24, 9;stroke-dashoffset:0;stroke-opacity:1"
         id="path5029"
         inkscape:connector-curvature="0" /></g><g
       id="g5031"><g
         id="g5033"
         clip-path="url(#clipPath5037)"><path
           d="M 823.26,482.94 800.58,460.26"
           style="fill:none;stroke:#00b050;stroke-width:3;stroke-linecap:butt;stroke-linejoin:miter;stroke-miterlimit:10;stroke-dasharray:none;stroke-opacity:1"
           id="path5039"
           inkscape:connector-curvature="0" /></g></g><path
       d="m 823.26,482.94 -22.68,22.68"
       style="fill:none;stroke:#00b050;stroke-width:3;stroke-linecap:butt;stroke-linejoin:miter;stroke-miterlimit:10;stroke-dasharray:none;stroke-opacity:1"
       id="path5041"
       inkscape:connector-curvature="0" /><path
       d="M 56.7,198.42 H 822.03"
       style="fill:none;stroke:#000000;stroke-width:3;stroke-linecap:butt;stroke-linejoin:miter;stroke-miterlimit:10;stroke-dasharray:none;stroke-opacity:1"
       id="path5043"
       inkscape:connector-curvature="0" /><path
       d="M 56.7,85.02 H 822.03"
       style="fill:none;stroke:#000000;stroke-width:3;stroke-linecap:butt;stroke-linejoin:miter;stroke-miterlimit:10;stroke-dasharray:none;stroke-opacity:1"
       id="path5045"
       inkscape:connector-curvature="0" /><path
       d="m 439.02,254.94 c 23.47,0 42.49,-25.36 42.49,-56.64 0,-31.04 -18.74,-56.29 -42.01,-56.64"
       style="fill:none;stroke:#0070c0;stroke-width:3;stroke-linecap:butt;stroke-linejoin:miter;stroke-miterlimit:10;stroke-dasharray:none;stroke-opacity:1"
       id="path5047"
       inkscape:connector-curvature="0" /><g
       id="g5049"><path
         d="m 439.02,141.66 c -23.47,0 -42.49,25.36 -42.49,56.64 0,31.04 18.74,56.29 42.01,56.64"
         style="fill:none;stroke:#0070c0;stroke-width:3;stroke-linecap:butt;stroke-linejoin:miter;stroke-miterlimit:10;stroke-dasharray:12, 9;stroke-dashoffset:0;stroke-opacity:1"
         id="path5051"
         inkscape:connector-curvature="0" /></g><path
       d="m 481.5,198.3 -22.68,22.68"
       style="fill:none;stroke:#0070c0;stroke-width:3;stroke-linecap:butt;stroke-linejoin:miter;stroke-miterlimit:10;stroke-dasharray:none;stroke-opacity:1"
       id="path5053"
       inkscape:connector-curvature="0" /><g
       id="g5055"><g
         id="g5057"
         clip-path="url(#clipPath5061)"><path
           d="m 481.5,198.3 22.68,22.68"
           style="fill:none;stroke:#0070c0;stroke-width:3;stroke-linecap:butt;stroke-linejoin:miter;stroke-miterlimit:10;stroke-dasharray:none;stroke-opacity:1"
           id="path5063"
           inkscape:connector-curvature="0" /></g></g><g
       id="g5065"><g
         id="g5067"
         clip-path="url(#clipPath5071)"><path
           d="m 563.66,203.81 c 20.34,-11.74 24.13,-43.24 8.48,-70.35 -15.53,-26.9 -44.41,-39.418 -64.76,-28.07"
           style="fill:none;stroke:#0070c0;stroke-width:3;stroke-linecap:butt;stroke-linejoin:miter;stroke-miterlimit:10;stroke-dasharray:none;stroke-opacity:1"
           id="path5073"
           inkscape:connector-curvature="0" /></g></g><g
       id="g5075"><g
         id="g5077"
         clip-path="url(#clipPath5081)"><path
           d="m 506.97,105.62 c -20.34,11.75 -24.13,43.24 -8.48,70.36 15.53,26.9 44.41,39.41 64.76,28.06"
           style="fill:none;stroke:#0070c0;stroke-width:3;stroke-linecap:butt;stroke-linejoin:miter;stroke-miterlimit:10;stroke-dasharray:12, 9;stroke-dashoffset:0;stroke-opacity:1"
           id="path5083"
           inkscape:connector-curvature="0" /></g></g><g
       id="g5085"><g
         id="g5087"
         clip-path="url(#clipPath5091)"><path
           d="m 572.14,133.45 -8.3,30.98"
           style="fill:none;stroke:#0070c0;stroke-width:3;stroke-linecap:butt;stroke-linejoin:miter;stroke-miterlimit:10;stroke-dasharray:none;stroke-opacity:1"
           id="path5093"
           inkscape:connector-curvature="0" /></g></g><g
       id="g5095"><g
         id="g5097"
         clip-path="url(#clipPath5101)"><path
           d="m 572.14,133.45 30.97,8.3"
           style="fill:none;stroke:#0070c0;stroke-width:3;stroke-linecap:butt;stroke-linejoin:miter;stroke-miterlimit:10;stroke-dasharray:none;stroke-opacity:1"
           id="path5103"
           inkscape:connector-curvature="0" /></g></g><g
       id="g5105"><g
         id="g5107"
         clip-path="url(#clipPath5111)"><path
           d="m 307.29,203.81 c 20.34,11.74 49.51,-0.72 65.17,-27.83 15.53,-26.9 11.93,-58.17 -8.07,-70.12"
           style="fill:none;stroke:#0070c0;stroke-width:3;stroke-linecap:butt;stroke-linejoin:miter;stroke-miterlimit:10;stroke-dasharray:none;stroke-opacity:1"
           id="path5113"
           inkscape:connector-curvature="0" /></g></g><g
       id="g5115"><g
         id="g5117"
         clip-path="url(#clipPath5121)"><path
           d="m 363.98,105.62 c -20.34,-11.737 -49.52,0.72 -65.17,27.84 -15.53,26.9 -11.93,58.16 8.07,70.11"
           style="fill:none;stroke:#0070c0;stroke-width:3;stroke-linecap:butt;stroke-linejoin:miter;stroke-miterlimit:10;stroke-dasharray:12, 9;stroke-dashoffset:0;stroke-opacity:1"
           id="path5123"
           inkscape:connector-curvature="0" /></g></g><g
       id="g5125"><g
         id="g5127"
         clip-path="url(#clipPath5131)"><path
           d="m 372.46,175.97 -30.98,8.3"
           style="fill:none;stroke:#0070c0;stroke-width:3;stroke-linecap:butt;stroke-linejoin:miter;stroke-miterlimit:10;stroke-dasharray:none;stroke-opacity:1"
           id="path5133"
           inkscape:connector-curvature="0" /></g></g><g
       id="g5135"><g
         id="g5137"
         clip-path="url(#clipPath5141)"><path
           d="m 372.46,175.97 8.3,30.98"
           style="fill:none;stroke:#0070c0;stroke-width:3;stroke-linecap:butt;stroke-linejoin:miter;stroke-miterlimit:10;stroke-dasharray:none;stroke-opacity:1"
           id="path5143"
           inkscape:connector-curvature="0" /></g></g><g
       id="g5145"><path
         d="m 57.06,142.01 c 100.53,1.13 207.17,0.22 270.34,9.51 63.17,9.28 72,46.18 108.68,46.18 36.68,0 46.87,-36.9 111.4,-46.18 64.53,-9.29 170.04,-10.98 275.78,-9.51"
         style="fill:none;stroke:#00b050;stroke-width:3;stroke-linecap:butt;stroke-linejoin:miter;stroke-miterlimit:10;stroke-dasharray:24, 9;stroke-dashoffset:0;stroke-opacity:1"
         id="path5147"
         inkscape:connector-curvature="0" /></g><g
       id="g5149"><g
         id="g5151"
         clip-path="url(#clipPath5155)"><path
           d="M 823.26,142.14 800.58,119.46"
           style="fill:none;stroke:#00b050;stroke-width:3;stroke-linecap:butt;stroke-linejoin:miter;stroke-miterlimit:10;stroke-dasharray:none;stroke-opacity:1"
           id="path5157"
           inkscape:connector-curvature="0" /></g></g><path
       d="m 823.26,142.14 -22.68,22.68"
       style="fill:none;stroke:#00b050;stroke-width:3;stroke-linecap:butt;stroke-linejoin:miter;stroke-miterlimit:10;stroke-dasharray:none;stroke-opacity:1"
       id="path5159"
       inkscape:connector-curvature="0" /><path
       d="m 739.3,616.33 v 47.69 h -2 v -47.69 z m 4,46.69 -5,10 -5,-10 z"
       style="fill:#000000;fill-opacity:1;fill-rule:nonzero;stroke:none"
       id="path5161"
       inkscape:connector-curvature="0" /><g
       id="g5163"><g
         id="g5165"
         clip-path="url(#clipPath5169)"><text
           transform="matrix(1,0,0,-1,733.46,683.98)"
           style="font-variant:normal;font-weight:normal;font-size:27.98399925px;font-family:Calibri;-inkscape-font-specification:Calibri;writing-mode:lr-tb;fill:#000000;fill-opacity:1;fill-rule:nonzero;stroke:none"
           id="text5173"><tspan
             x="0"
             y="0"
             id="tspan5171">z</tspan></text>
</g></g><g
       id="g5175"><g
         id="g5177"
         clip-path="url(#clipPath5181)"><text
           transform="matrix(1,0,0,-1,268.44,220.39)"
           style="font-variant:normal;font-weight:normal;font-size:32.04000092px;font-family:Arial;-inkscape-font-specification:ArialMT;writing-mode:lr-tb;fill:#000000;fill-opacity:1;fill-rule:nonzero;stroke:none"
           id="text5185"><tspan
             x="0 21.37068 42.74136 51.648479 70.35984 79.26696"
             y="0"
             sodipodi:role="line"
             id="tspan5183">PV &gt; 0</tspan></text>
</g></g><g
       id="g5187"><g
         id="g5189"
         clip-path="url(#clipPath5193)"><text
           transform="matrix(1,0,0,-1,511.44,221.04)"
           style="font-variant:normal;font-weight:normal;font-size:32.04000092px;font-family:Arial;-inkscape-font-specification:ArialMT;writing-mode:lr-tb;fill:#000000;fill-opacity:1;fill-rule:nonzero;stroke:none"
           id="text5197"><tspan
             x="0 21.37068 42.74136 51.648479 70.35984 79.26696"
             y="0"
             sodipodi:role="line"
             id="tspan5195">PV &lt; 0</tspan></text>
</g></g></g></svg>